<svg width="136" height="64" viewBox="0 0 136 64" fill="none" xmlns="http://www.w3.org/2000/svg">
<path d="M23.2938 48.9172C29.7628 47.7745 35.1058 46.8289 35.1671 46.8158L35.2787 46.7922L29.1714 39.5277C25.8123 35.5322 23.064 32.2477 23.064 32.2287C23.064 32.1929 29.3704 14.8266 29.4058 14.7648C29.4177 14.7441 33.7093 22.1536 39.8091 32.7258C45.5198 42.6236 50.228 50.7845 50.2718 50.861L50.3513 51L30.9417 50.9975L11.532 50.995L23.2938 48.9172ZM97.7276 47.1604C94.7731 46.9709 93.0547 45.2886 92.5993 42.1395C92.4782 41.3018 92.4777 41.2801 92.4653 35.8418L92.4534 30.5784H93.761H95.0685L95.0788 35.6695C95.0881 40.2579 95.0939 40.7959 95.1378 41.1186C95.3159 42.4286 95.6703 43.3095 96.2737 43.9419C96.7567 44.4479 97.322 44.7442 98.1046 44.9014C98.4738 44.9756 99.5241 44.9758 99.8607 44.9018C100.654 44.7272 101.29 44.3819 101.851 43.8211C102.49 43.182 102.963 42.2752 103.192 41.2498L103.269 40.9042L103.278 35.7701L103.287 30.636H104.622H105.957V38.7069V46.7779H104.635H103.314V45.4973C103.314 44.6273 103.305 44.22 103.284 44.2267C103.268 44.2322 103.2 44.336 103.134 44.4574C102.678 45.2878 101.92 46.0471 101.088 46.5046C100.092 47.053 99.0928 47.2479 97.7276 47.1604ZM127.716 47.1473C126.673 47.0689 125.575 46.7104 124.678 46.1551C122.786 44.9849 121.666 43.056 121.339 40.4015C121.225 39.4829 121.212 38.249 121.306 37.4685C121.518 35.7245 122.203 34.0124 123.179 32.7901C123.429 32.4767 123.997 31.9092 124.31 31.659C125.156 30.9835 126.146 30.5111 127.197 30.2812C127.809 30.1473 128.887 30.0844 129.538 30.1447C131.172 30.2961 132.669 31.0655 133.687 32.2764C134.721 33.5066 135.29 35.2257 135.362 37.3425C135.374 37.6743 135.376 38.2559 135.368 38.6351L135.354 39.3244L129.631 39.3316L123.908 39.3389V39.5943C123.908 40.3717 124.097 41.2572 124.424 42.0106C124.706 42.6603 125.191 43.3697 125.588 43.713C126.402 44.417 127.399 44.8383 128.489 44.9397C128.894 44.9773 129.924 44.9377 130.385 44.8669C131.7 44.6649 132.949 44.1493 133.959 43.3925C134.078 43.3035 134.191 43.2203 134.211 43.2076C134.241 43.1892 134.248 43.4218 134.247 44.3996L134.246 45.6146L133.976 45.7818C132.834 46.488 131.526 46.9415 130.141 47.1112C129.727 47.1619 128.211 47.1845 127.716 47.1473ZM132.697 36.9004C132.697 35.5981 132.148 34.1514 131.372 33.4065C130.817 32.8749 130.147 32.55 129.351 32.4266C128.974 32.3683 128.18 32.3907 127.783 32.471C126.943 32.6407 126.248 33.0099 125.642 33.6087C125.004 34.2388 124.526 35.0041 124.226 35.876C124.118 36.1896 123.991 36.7044 123.952 36.9907L123.933 37.1271H128.315H132.697V36.9004ZM55.0667 46.7419C55.0734 46.7222 57.0167 41.6168 59.3853 35.3967L63.6917 24.0874L65.0754 24.0873L66.459 24.0872L66.5738 24.3816C66.9247 25.2813 75.195 46.7533 75.195 46.7645C75.195 46.7718 74.5326 46.7777 73.7229 46.7776L72.2509 46.7773L71.0589 43.6038L69.867 40.4302L65.0675 40.4302L60.2681 40.4301L60.2264 40.5378C60.2034 40.5971 59.6942 42.0251 59.0947 43.7111L58.0047 46.7767L56.5296 46.7772C55.362 46.7777 55.057 46.7703 55.0667 46.7419ZM68.9909 38.0084C68.9909 38.0033 68.1888 35.8287 67.2084 33.1759C65.3742 28.2128 65.2716 27.9142 65.1267 27.1174C65.0587 26.7438 65.0244 26.7334 64.984 27.0743C64.9552 27.318 64.8302 27.8633 64.7338 28.1658C64.686 28.3159 63.86 30.5828 62.8983 33.2035C61.9366 35.8242 61.1498 37.9794 61.1498 37.993C61.1498 38.0065 62.914 38.0175 65.0704 38.0175C67.2267 38.0175 68.9909 38.0134 68.9909 38.0084ZM76.0854 46.3645V45.9512L80.8671 39.3778L85.6488 32.8044L81.3194 32.7901L76.9901 32.7757L76.9826 31.6771L76.9751 30.5784H83.2369H89.4987V30.9495V31.3206L84.7164 37.9298C82.0862 41.5649 79.9341 44.5451 79.9341 44.5526C79.9341 44.5601 82.0603 44.5662 84.659 44.5662H89.3838V45.672V46.7778H82.7346H76.0854V46.3645ZM111.174 46.7587C111.164 46.7481 111.155 43.1033 111.155 38.659V30.5784H112.462H113.769V32.2443C113.769 33.1606 113.78 33.9102 113.794 33.9102C113.807 33.9102 113.871 33.7603 113.935 33.5769C114.229 32.737 114.738 31.9521 115.395 31.3283C115.986 30.7663 116.662 30.4303 117.46 30.3017C117.684 30.2656 117.873 30.2587 118.321 30.2703C118.884 30.285 119.178 30.3261 119.521 30.438L119.628 30.4732V31.8297V33.1862L119.32 33.0317C118.774 32.7586 118.236 32.6506 117.589 32.6842C117.168 32.7061 116.892 32.7602 116.555 32.8865C115.862 33.1464 115.301 33.6052 114.908 34.2315C114.34 35.1381 113.935 36.3034 113.815 37.3745C113.794 37.5667 113.781 39.1321 113.776 42.2182L113.768 46.7778H112.481C111.773 46.7778 111.185 46.7692 111.174 46.7587ZM0 46.7019C0 46.6917 2.87776 41.6961 6.39501 35.6007L12.79 24.518L20.2427 18.2638C24.3416 14.8239 27.7064 12.0053 27.7198 12.0001C27.7333 11.995 27.6794 12.1307 27.6 12.3017C27.5206 12.4727 23.879 20.2837 19.5075 29.6593L11.5593 46.706L5.77966 46.7133C2.60085 46.7173 0 46.7121 0 46.7019Z" fill="#0089D6"/>
</svg>
