<svg width="210" height="64" viewBox="0 0 210 64" fill="none" xmlns="http://www.w3.org/2000/svg">
<path d="M24.7406 23.5867H25.9277L29.3107 20.2037L29.4769 18.7674C27.5389 17.0569 25.1968 15.8686 22.6718 15.3149C20.1469 14.7612 17.5225 14.8603 15.0465 15.6028C12.5705 16.3454 10.3247 17.7069 8.52121 19.5587C6.71771 21.4105 5.41608 23.6916 4.73926 26.1863C5.11614 26.0319 5.53363 26.0068 5.92628 26.1151L12.6923 24.9993C12.6923 24.9993 13.0366 24.4295 13.2146 24.4651C14.6644 22.8729 16.6679 21.8951 18.815 21.7318C20.9622 21.5685 23.0905 22.2321 24.7644 23.5867H24.7406Z" fill="#EA4335"/>
<path d="M34.13 26.1858C33.3524 23.3223 31.7558 20.748 29.5362 18.7788L24.7881 23.5269C25.7776 24.3355 26.5706 25.3582 27.1073 26.5179C27.644 27.6776 27.9103 28.9441 27.8862 30.2217V31.0645C28.4411 31.0645 28.9907 31.1738 29.5034 31.3862C30.016 31.5986 30.4819 31.9098 30.8743 32.3022C31.2667 32.6946 31.578 33.1605 31.7903 33.6732C32.0027 34.1859 32.112 34.7354 32.112 35.2903C32.112 35.8453 32.0027 36.3948 31.7903 36.9075C31.578 37.4202 31.2667 37.886 30.8743 38.2784C30.4819 38.6708 30.016 38.9821 29.5034 39.1945C28.9907 39.4068 28.4411 39.5161 27.8862 39.5161H19.4346L18.5918 40.3708V45.4394L19.4346 46.2822H27.8862C30.2463 46.3006 32.5496 45.5588 34.4555 44.1666C36.3613 42.7745 37.7684 40.8058 38.4687 38.552C39.1689 36.2981 39.1251 33.8787 38.3438 31.6516C37.5624 29.4245 36.0849 27.5081 34.13 26.1858Z" fill="#4285F4"/>
<path d="M10.9714 46.2348H19.423V39.4687H10.9714C10.3693 39.4686 9.77419 39.339 9.22648 39.0889L8.03946 39.4568L4.63269 42.8399L4.33594 44.0269C6.24637 45.4695 8.57751 46.2451 10.9714 46.2348Z" fill="#34A853"/>
<path d="M10.9711 24.2872C8.68113 24.3009 6.4526 25.0294 4.59678 26.3711C2.74097 27.7128 1.35054 29.6006 0.619705 31.7709C-0.111129 33.9412 -0.145872 36.2855 0.520328 38.4765C1.18653 40.6675 2.5204 42.5957 4.33564 43.9918L9.23806 39.0894C8.61506 38.8079 8.06966 38.3795 7.64863 37.8409C7.22761 37.3023 6.94354 36.6696 6.8208 35.9971C6.69805 35.3246 6.7403 34.6323 6.94392 33.9797C7.14753 33.3271 7.50644 32.7337 7.98984 32.2503C8.47323 31.7669 9.06669 31.408 9.71929 31.2044C10.3719 31.0007 11.0641 30.9585 11.7367 31.0812C12.4092 31.204 13.0419 31.488 13.5805 31.9091C14.1191 32.3301 14.5475 32.8755 14.8289 33.4985L19.7314 28.5961C18.7024 27.2509 17.3762 26.162 15.8565 25.4145C14.3368 24.667 12.6647 24.2811 10.9711 24.2872Z" fill="#FBBC05"/>
<path d="M61.467 41.5104C60.0119 41.5289 58.568 41.2536 57.2218 40.7008C55.8756 40.1481 54.6549 39.3293 53.6326 38.2935C52.5782 37.3017 51.7415 36.1016 51.1754 34.7693C50.6094 33.437 50.3265 32.0016 50.3446 30.5541C50.3272 29.1068 50.6105 27.6716 51.1764 26.3394C51.7424 25.0072 52.5788 23.807 53.6326 22.8147C54.6498 21.7682 55.8684 20.9385 57.2148 20.3754C58.5612 19.8124 60.0076 19.5277 61.467 19.5385C62.8575 19.52 64.2379 19.778 65.5278 20.2977C66.8177 20.8173 67.9915 21.5882 68.9809 22.5654L66.868 24.714C65.421 23.3156 63.479 22.5473 61.467 22.5773C60.4233 22.5645 59.3883 22.7689 58.4278 23.1776C57.4674 23.5863 56.6024 24.1904 55.888 24.9514C55.1455 25.688 54.5597 26.5673 54.166 27.5363C53.7723 28.5053 53.5787 29.544 53.597 30.5897C53.5883 31.6236 53.7865 32.6487 54.18 33.6048C54.5734 34.5609 55.1541 35.4286 55.888 36.1569C57.3579 37.6218 59.3416 38.4551 61.4167 38.4795C63.4918 38.5039 65.4946 37.7174 66.9985 36.2875C67.9296 35.2678 68.5009 33.9711 68.6248 32.5958H61.5026V29.557H71.5805C71.6795 30.169 71.7192 30.7891 71.6992 31.4088C71.7618 32.6913 71.5638 33.9731 71.117 35.1769C70.6701 36.3806 69.9838 37.4813 69.0996 38.4122C68.1164 39.4359 66.9285 40.2408 65.6134 40.7746C64.2983 41.3085 62.8855 41.5591 61.467 41.5104ZM84.8989 39.4924C83.5464 40.7889 81.7453 41.5127 79.8718 41.5127C77.9983 41.5127 76.1973 40.7889 74.8448 39.4924C74.1716 38.8397 73.6414 38.0542 73.2879 37.1858C72.9344 36.3173 72.7653 35.3849 72.7912 34.4476C72.766 33.5104 72.9355 32.5781 73.2889 31.7098C73.6424 30.8414 74.1722 30.0559 74.8448 29.4027C76.1986 28.109 77.9992 27.387 79.8718 27.387C81.7444 27.387 83.545 28.109 84.8989 29.4027C85.5715 30.0559 86.1012 30.8414 86.4547 31.7098C86.8082 32.5781 86.9777 33.5104 86.9524 34.4476C86.9769 35.3857 86.8058 36.3187 86.4503 37.1872C86.0947 38.0557 85.5623 38.8407 84.887 39.4924H84.8989ZM77.0645 37.5101C77.4243 37.8943 77.859 38.2005 78.3419 38.4099C78.8248 38.6193 79.3455 38.7273 79.8718 38.7273C80.3981 38.7273 80.9189 38.6193 81.4017 38.4099C81.8846 38.2005 82.3194 37.8943 82.6791 37.5101C83.0714 37.1047 83.3785 36.6249 83.5824 36.0989C83.7862 35.5729 83.8827 35.0114 83.8662 34.4476C83.8837 33.8818 83.7876 33.3183 83.5838 32.7902C83.3799 32.2622 83.0723 31.7804 82.6791 31.3732C82.3146 30.9929 81.877 30.6903 81.3925 30.4836C80.908 30.2769 80.3867 30.1704 79.86 30.1704C79.3332 30.1704 78.8119 30.2769 78.3274 30.4836C77.8429 30.6903 77.4053 30.9929 77.0408 31.3732C76.6476 31.7804 76.34 32.2622 76.1361 32.7902C75.9323 33.3183 75.8363 33.8818 75.8537 34.4476C75.8387 35.0123 75.9371 35.5742 76.143 36.1002C76.349 36.6263 76.6582 37.1057 77.0526 37.5101H77.0645ZM100.354 39.4924C99.0015 40.7889 97.2004 41.5127 95.3269 41.5127C93.4534 41.5127 91.6523 40.7889 90.2998 39.4924C89.6267 38.8397 89.0965 38.0542 88.743 37.1858C88.3895 36.3173 88.2203 35.3849 88.2463 34.4476C88.2211 33.5104 88.3905 32.5781 88.744 31.7098C89.0975 30.8414 89.6272 30.0559 90.2998 29.4027C91.6523 28.1063 93.4534 27.3825 95.3269 27.3825C97.2004 27.3825 99.0015 28.1063 100.354 29.4027C101.027 30.0559 101.556 30.8414 101.91 31.7098C102.263 32.5781 102.433 33.5104 102.407 34.4476C102.433 35.3849 102.264 36.3173 101.911 37.1858C101.557 38.0542 101.027 38.8397 100.354 39.4924ZM92.5196 37.5101C92.8793 37.8943 93.3141 38.2005 93.797 38.4099C94.2798 38.6193 94.8006 38.7273 95.3269 38.7273C95.8532 38.7273 96.3739 38.6193 96.8568 38.4099C97.3397 38.2005 97.7745 37.8943 98.1342 37.5101C98.5265 37.1047 98.8336 36.6249 99.0374 36.0989C99.2413 35.5729 99.3378 35.0114 99.3212 34.4476C99.3387 33.8818 99.2427 33.3183 99.0388 32.7902C98.835 32.2622 98.5274 31.7804 98.1342 31.3732C97.7697 30.9929 97.332 30.6903 96.8475 30.4836C96.3631 30.2769 95.8418 30.1704 95.315 30.1704C94.7883 30.1704 94.267 30.2769 93.7825 30.4836C93.298 30.6903 92.8603 30.9929 92.4958 31.3732C92.1027 31.7804 91.7951 32.2622 91.5912 32.7902C91.3873 33.3183 91.2913 33.8818 91.3088 34.4476C91.2938 35.0123 91.3922 35.5742 91.5981 36.1002C91.804 36.6263 92.1133 37.1057 92.5077 37.5101H92.5196ZM110.515 47.8491C109.092 47.8943 107.697 47.4502 106.562 46.5908C105.554 45.8334 104.761 44.8271 104.259 43.6708L106.966 42.5431C107.26 43.2342 107.721 43.8417 108.307 44.3117C108.934 44.8174 109.721 45.0826 110.527 45.0596C111.037 45.0906 111.549 45.0113 112.026 44.8269C112.503 44.6426 112.935 44.3576 113.293 43.9912C114.008 43.1286 114.361 42.0224 114.278 40.905V39.8841H114.171C113.719 40.4214 113.147 40.8459 112.502 41.1241C111.858 41.4022 111.157 41.5263 110.456 41.4866C109.564 41.4893 108.682 41.3072 107.865 40.9517C107.048 40.5962 106.313 40.075 105.707 39.4212C105.05 38.7726 104.532 37.9974 104.183 37.1425C103.834 36.2876 103.662 35.3708 103.678 34.4476C103.661 33.5189 103.833 32.5966 104.181 31.7358C104.53 30.875 105.049 30.0936 105.707 29.4383C106.312 28.7818 107.046 28.258 107.863 27.9004C108.68 27.5428 109.563 27.3591 110.456 27.361C111.211 27.3597 111.957 27.5259 112.64 27.8477C113.231 28.1058 113.757 28.4908 114.183 28.9754H114.29V27.8477H117.233V40.4895C117.311 41.4896 117.184 42.4949 116.859 43.444C116.534 44.3931 116.02 45.266 115.346 46.0092C114.704 46.623 113.946 47.102 113.117 47.418C112.287 47.734 111.402 47.8806 110.515 47.8491ZM110.729 38.7327C111.235 38.7439 111.739 38.6433 112.202 38.4381C112.666 38.233 113.079 37.9283 113.411 37.5457C114.144 36.7064 114.53 35.6202 114.491 34.5069C114.535 33.3749 114.149 32.2681 113.411 31.4088C113.079 31.0255 112.666 30.7204 112.203 30.5152C111.739 30.31 111.236 30.2098 110.729 30.2218C110.208 30.2111 109.691 30.3114 109.212 30.5161C108.733 30.7207 108.303 31.0251 107.951 31.4088C107.166 32.2372 106.739 33.342 106.764 34.4832C106.752 35.0429 106.85 35.5995 107.054 36.121C107.258 36.6425 107.563 37.1186 107.951 37.522C108.301 37.9094 108.73 38.2177 109.209 38.4265C109.688 38.6353 110.206 38.7397 110.729 38.7327ZM122.468 20.3338V41.083H119.37V20.3338H122.468ZM130.967 41.5104C130.039 41.5342 129.117 41.3662 128.257 41.017C127.397 40.6677 126.618 40.1446 125.97 39.4806C125.312 38.8213 124.795 38.0353 124.45 37.1701C124.105 36.3049 123.94 35.3786 123.964 34.4476C123.929 33.5142 124.082 32.5833 124.414 31.7105C124.747 30.8376 125.252 30.0407 125.899 29.3671C126.508 28.7243 127.246 28.2159 128.063 27.8746C128.881 27.5332 129.761 27.3664 130.647 27.3848C131.461 27.3762 132.269 27.5337 133.021 27.8477C133.698 28.121 134.315 28.5243 134.837 29.0347C135.285 29.4675 135.683 29.9493 136.024 30.471C136.3 30.9116 136.534 31.3765 136.724 31.8599L137.045 32.667L127.549 36.5723C127.836 37.2322 128.316 37.7896 128.927 38.171C129.537 38.5524 130.248 38.74 130.967 38.709C131.667 38.7109 132.355 38.5315 132.965 38.1882C133.574 37.8449 134.084 37.3496 134.445 36.7504L136.819 38.3529C136.213 39.2197 135.438 39.9546 134.54 40.5133C133.472 41.1879 132.23 41.5346 130.967 41.5104ZM127.003 34.2339L133.318 31.6106C133.123 31.148 132.775 30.7666 132.332 30.5304C131.837 30.2504 131.275 30.1071 130.706 30.1149C129.74 30.1399 128.823 30.5452 128.154 31.2426C127.754 31.6257 127.443 32.0924 127.244 32.6095C127.045 33.1266 126.963 33.6813 127.003 34.2339Z" fill="#5F6368"/>
<path d="M153.272 41.5107C151.955 41.5335 150.646 41.2897 149.425 40.7942C148.204 40.2986 147.096 39.5614 146.167 38.6268C145.237 37.6922 144.507 36.5795 144.019 35.3555C143.53 34.1316 143.294 32.8215 143.325 31.5041C143.294 30.1867 143.53 28.8767 144.019 27.6527C144.507 26.4287 145.237 25.316 146.167 24.3814C147.096 23.4469 148.204 22.7097 149.425 22.2141C150.646 21.7185 151.955 21.4747 153.272 21.4975C154.606 21.4558 155.932 21.716 157.15 22.2586C158.369 22.8013 159.45 23.6123 160.311 24.6312L158.602 26.2931C157.969 25.4976 157.158 24.8627 156.234 24.4399C155.31 24.017 154.299 23.8182 153.284 23.8597C152.307 23.8376 151.335 24.0135 150.427 24.3766C149.519 24.7397 148.694 25.2825 148.002 25.9726C147.282 26.6967 146.719 27.5619 146.349 28.5138C145.98 29.4657 145.811 30.4838 145.853 31.5041C145.811 32.5244 145.98 33.5425 146.349 34.4944C146.719 35.4464 147.282 36.3115 148.002 37.0356C148.694 37.7257 149.519 38.2686 150.427 38.6317C151.335 38.9948 152.307 39.1706 153.284 39.1486C154.418 39.1613 155.541 38.9181 156.569 38.4373C157.596 37.9564 158.502 37.2501 159.219 36.3709L160.928 38.0802C160.034 39.1504 158.91 40.0063 157.64 40.5849C156.272 41.2166 154.779 41.533 153.272 41.5107Z" fill="#5F6368"/>
<path d="M165.523 41.0835H163.065V21.9131H165.523V41.0835Z" fill="#5F6368"/>
<path d="M169.534 29.5451C170.822 28.2664 172.563 27.5488 174.377 27.5488C176.192 27.5488 177.933 28.2664 179.22 29.5451C179.85 30.2099 180.342 30.9926 180.668 31.8482C180.994 32.7038 181.147 33.6154 181.12 34.5306C181.147 35.4458 180.994 36.3574 180.668 37.213C180.342 38.0687 179.85 38.8514 179.22 39.5161C177.933 40.7948 176.192 41.5124 174.377 41.5124C172.563 41.5124 170.822 40.7948 169.534 39.5161C168.905 38.8514 168.413 38.0687 168.087 37.213C167.761 36.3574 167.607 35.4458 167.635 34.5306C167.607 33.6154 167.761 32.7038 168.087 31.8482C168.413 30.9926 168.905 30.2099 169.534 29.5451ZM171.362 37.973C171.749 38.3821 172.216 38.708 172.733 38.9308C173.251 39.1535 173.808 39.2684 174.371 39.2684C174.935 39.2684 175.492 39.1535 176.009 38.9308C176.527 38.708 176.993 38.3821 177.381 37.973C177.81 37.5121 178.143 36.9704 178.362 36.3794C178.58 35.7885 178.678 35.16 178.651 34.5306C178.678 33.9013 178.58 33.2728 178.362 32.6818C178.143 32.0908 177.81 31.5491 177.381 31.0882C176.993 30.6791 176.527 30.3532 176.009 30.1305C175.492 29.9077 174.935 29.7929 174.371 29.7929C173.808 29.7929 173.251 29.9077 172.733 30.1305C172.216 30.3532 171.749 30.6791 171.362 31.0882C170.933 31.5491 170.599 32.0908 170.381 32.6818C170.163 33.2728 170.065 33.9013 170.092 34.5306C170.068 35.1588 170.169 35.7856 170.389 36.3744C170.609 36.9633 170.944 37.5027 171.374 37.9611L171.362 37.973Z" fill="#5F6368"/>
<path d="M194.736 41.0833H192.361V39.2671H192.29C191.868 39.9569 191.27 40.5222 190.557 40.9052C189.818 41.3337 188.978 41.559 188.124 41.5581C187.43 41.6055 186.734 41.4957 186.089 41.2367C185.444 40.9777 184.865 40.5763 184.397 40.0624C183.497 38.9251 183.046 37.4979 183.126 36.0503V27.9785H185.584V35.5992C185.584 38.0445 186.664 39.2671 188.824 39.2671C189.304 39.2821 189.781 39.1822 190.214 38.9757C190.648 38.7692 191.026 38.4622 191.317 38.0801C191.954 37.273 192.293 36.2711 192.278 35.2431V27.9785H194.736V41.0833Z" fill="#5F6368"/>
<path d="M203.08 41.5109C202.247 41.5136 201.422 41.3357 200.664 40.9894C199.906 40.6431 199.232 40.1366 198.688 39.5048C197.458 38.1456 196.799 36.3641 196.848 34.5312C196.799 32.6983 197.458 30.9168 198.688 29.5575C199.232 28.9257 199.906 28.4192 200.664 28.0729C201.422 27.7266 202.247 27.5487 203.08 27.5515C204.014 27.5367 204.937 27.7571 205.763 28.1924C206.489 28.5578 207.104 29.1112 207.543 29.7949H207.65L207.543 27.9788V21.9131H210.001V41.0835H207.627V39.2674H207.52C207.08 39.9511 206.465 40.5045 205.739 40.8699C204.92 41.3013 204.006 41.5216 203.08 41.5109ZM203.484 39.2674C204.039 39.2755 204.59 39.1654 205.1 38.9443C205.609 38.7233 206.066 38.3964 206.439 37.9854C207.274 37.035 207.701 35.7939 207.627 34.5312C207.701 33.2684 207.274 32.0273 206.439 31.0769C206.063 30.6637 205.605 30.3335 205.094 30.1076C204.583 29.8816 204.031 29.7649 203.472 29.7649C202.913 29.7649 202.361 29.8816 201.85 30.1076C201.339 30.3335 200.88 30.6637 200.504 31.0769C200.09 31.5444 199.771 32.0891 199.568 32.6798C199.364 33.2705 199.279 33.8956 199.317 34.5193C199.279 35.143 199.364 35.7681 199.568 36.3588C199.771 36.9495 200.09 37.4942 200.504 37.9617C200.878 38.38 201.338 38.7132 201.852 38.9384C202.366 39.1637 202.923 39.2759 203.484 39.2674Z" fill="#5F6368"/>
</svg>
