<svg width="69" height="43" viewBox="0 0 69 43" fill="none" xmlns="http://www.w3.org/2000/svg">
<path fill-rule="evenodd" clip-rule="evenodd" d="M0 21.0841C0 32.7311 9.44973 42.1682 21.1095 42.1682C29.6447 42.1682 36.9987 37.0496 40.3392 29.759L34.1537 17.4261H19.7504V24.7166H34.7379C33.1884 30.3814 27.6887 35.1952 21.1222 35.1952C13.349 35.1952 7.0619 28.8699 7.0619 21.1222C7.0619 13.3871 13.3363 7.0746 21.0968 7.0619C21.2873 7.0619 21.4905 7.0619 21.681 7.0746C24.8818 7.17621 27.803 8.19231 30.2544 9.83077L25.5422 0.469946C24.107 0.165116 22.6336 0 21.1095 0C9.44973 0 0 9.43703 0 21.0841ZM43.0576 33.9248L47.1601 42.0536L68.0664 0.444336H59.8233L43.0576 33.9248Z" fill="black"/>
</svg>
