<svg width="167" height="35" viewBox="0 0 167 35" fill="none" xmlns="http://www.w3.org/2000/svg">
<path d="M51.4472 13.8141C50.8461 13.8141 50.2696 13.5753 49.8445 13.1502C49.4195 12.7252 49.1807 12.1486 49.1807 11.5475C49.1807 10.9464 49.4195 10.3699 49.8445 9.9448C50.2696 9.51973 50.8461 9.28093 51.4472 9.28093C51.7503 9.26852 52.0527 9.31768 52.3363 9.42543C52.6198 9.53317 52.8786 9.69727 53.0969 9.90781C53.3153 10.1184 53.4886 10.371 53.6066 10.6504C53.7246 10.9298 53.7847 11.2303 53.7833 11.5336C53.7827 11.8376 53.7214 12.1384 53.6031 12.4184C53.4847 12.6985 53.3117 12.9521 53.0942 13.1644C52.8767 13.3768 52.619 13.5436 52.3362 13.6552C52.0534 13.7667 51.7512 13.8207 51.4472 13.8141Z" fill="black"/>
<path d="M157.172 27.8216C154.407 27.8216 152.285 25.238 152.285 21.9341C152.262 21.0332 152.42 20.1368 152.75 19.2981C153.08 18.4595 153.575 17.6958 154.206 17.0523C154.837 16.4089 155.591 15.8989 156.423 15.5527C157.255 15.2065 158.148 15.0311 159.049 15.037C159.878 15.0481 160.697 15.2309 161.452 15.5738L161.544 15.6155V12.9178C161.544 11.6636 161.394 11.5801 160.751 11.4272L160.556 11.3799L159.722 11.1352L165.423 9.28296V24.5177C165.423 25.8832 165.604 26.2253 166.436 26.4645L166.942 26.5924L166.789 26.9511L161.549 27.8161V25.2491L161.432 25.3965C160.225 26.9205 158.637 27.8216 157.172 27.8216ZM159.23 15.7656C157.355 15.7656 156.449 17.412 156.449 20.8022C156.449 23.7724 157.547 25.6162 159.313 25.6162C159.889 25.6104 160.44 25.3843 160.854 24.9844C161.268 24.5846 161.513 24.0413 161.538 23.4665V18.0823C161.541 16.333 159.984 15.7656 159.23 15.7656Z" fill="black"/>
<path d="M48.1045 27.4129L48.1657 27.0653L49.0528 26.9262C49.2203 26.9142 49.3768 26.8387 49.4905 26.7152C49.6042 26.5917 49.6665 26.4294 49.6647 26.2615V18.7999C49.6647 17.3899 49.0195 17.0339 48.4577 16.881L48.124 16.7975L53.5359 15.0371V26.2448C53.531 26.4061 53.5846 26.5636 53.6869 26.6884C53.7891 26.8131 53.9331 26.8966 54.0921 26.9234L55.021 27.068L55.0822 27.4157L48.1045 27.4129Z" fill="black"/>
<path d="M108.469 34.0354L108.53 33.6878L109.418 33.5487C109.585 33.5367 109.742 33.4612 109.855 33.3377C109.969 33.2142 110.031 33.0519 110.029 32.8841V18.9119C110.029 17.9636 109.604 17.1459 109.017 16.9652L108.461 16.8233L113.904 15.0295V17.6076L114.02 17.4602C115.219 15.939 116.698 15.0295 118.164 15.0295C120.926 15.0379 122.822 17.8801 122.822 21.1813C122.822 25.5837 119.457 27.8169 116.148 27.8169C115.399 27.8387 114.655 27.6963 113.967 27.3998L113.876 27.3581V32.8757C113.874 33.044 113.937 33.2067 114.051 33.3303C114.165 33.4538 114.322 33.529 114.49 33.5404L115.375 33.6794L115.436 34.0271L108.469 34.0354ZM116.103 17.1738C115.527 17.197 114.98 17.434 114.568 17.8386C114.157 18.2432 113.911 18.7864 113.878 19.3625V24.9469C113.882 25.5047 114.101 26.0395 114.491 26.4389C114.88 26.8382 115.409 27.071 115.967 27.0883C117.238 27.0883 118.865 26.0676 118.865 21.7403C118.857 18.7701 117.869 17.1738 116.103 17.1738Z" fill="black"/>
<path d="M79.9005 26.2646V19.5122C79.898 19.2297 79.8393 18.9505 79.7278 18.691C79.6162 18.4314 79.4541 18.1967 79.2509 18.0005C79.0477 17.8042 78.8074 17.6504 78.5441 17.548C78.2808 17.4457 77.9998 17.3967 77.7174 17.4041C77.1836 17.4175 76.6754 17.6353 76.2976 18.0126C75.9198 18.3899 75.7013 18.8978 75.6872 19.4315V26.2507C75.6858 26.409 75.7412 26.5624 75.8432 26.6833C75.9452 26.8042 76.0872 26.8846 76.2434 26.9099L77.1723 27.0545L77.2335 27.4021H70.4977L70.5589 27.0545L71.2458 26.9099C71.4006 26.8848 71.5414 26.8057 71.6433 26.6865C71.7451 26.5673 71.8014 26.4159 71.802 26.2591V12.7542C71.8026 12.4431 71.7096 12.1391 71.535 11.8816C71.3604 11.6242 71.1123 11.4253 70.8231 11.3108L70.2168 11.0716L75.7261 9.27783V17.5321L75.8457 17.3513C75.8624 17.3291 77.417 15.0374 80.1703 15.0374C81.1211 15.0602 82.0281 15.4417 82.7094 16.1054C83.3463 16.7701 83.73 17.9409 83.73 19.2313L83.7579 26.2674C83.7565 26.4256 83.8118 26.5791 83.9139 26.7C84.0159 26.8209 84.1579 26.9013 84.3141 26.9265L85.243 27.0712L85.3041 27.4188H78.5823L78.6435 27.0712L79.3304 26.9265C79.4851 26.9015 79.626 26.8224 79.7279 26.7032C79.8297 26.584 79.886 26.4325 79.8866 26.2758" fill="black"/>
<path d="M33.3639 10.4316C33.3657 10.2638 33.3035 10.1015 33.1898 9.97799C33.0761 9.85447 32.9195 9.77899 32.7521 9.76696L31.8649 9.62791L31.8037 9.28027H39.4572L39.3905 9.62791L38.5033 9.76696C38.3359 9.77899 38.1793 9.85447 38.0656 9.97799C37.9519 10.1015 37.8896 10.2638 37.8915 10.4316V26.0835C37.8915 26.8205 38.8565 26.7093 38.8565 26.7093C41.6153 26.7093 43.3257 25.6747 45.1751 21.6449L45.4783 20.983H46.3432L45.57 27.4129H31.8037L31.8649 27.0653L32.7521 26.9262C32.9195 26.9142 33.0761 26.8387 33.1898 26.7152C33.3035 26.5917 33.3657 26.4294 33.3639 26.2615V10.4316Z" fill="black"/>
<path d="M91.6751 27.8218C90.7427 27.8108 89.8523 27.4322 89.1977 26.7681C88.543 26.1041 88.177 25.2084 88.1793 24.276V17.1369H85.4482L87.1447 15.4683H87.7204C87.7808 15.4683 87.8405 15.4563 87.8962 15.4331C87.9519 15.4098 88.0024 15.3757 88.0449 15.3328C88.0873 15.2898 88.1208 15.2389 88.1434 15.1829C88.166 15.1269 88.1772 15.067 88.1765 15.0066V13.5243L91.7919 12.3257V15.4739H95.2627L93.6747 17.1425H91.803V23.8421C91.803 25.558 93.0295 26.181 93.8554 26.181C94.2083 26.1776 94.5557 26.0929 94.8705 25.9335L94.9178 25.914L95.2599 26.3117C94.2726 27.1933 93.277 27.8218 91.6751 27.8218Z" fill="black"/>
<path d="M129.125 20.1515L136.565 20.2655C136.592 20.0347 136.598 19.2977 136.587 19.0391C136.504 17.1591 135.196 15.0371 131.778 15.0371C127.916 15.0371 125.001 17.8655 125.001 21.7117C125.001 25.2131 127.535 27.8301 130.897 27.8301C133.595 27.8301 135.488 26.6286 136.54 24.1896L136.262 23.9505C135.925 24.4771 135.459 24.9083 134.907 25.2025C134.356 25.4967 133.738 25.644 133.113 25.6302C130.705 25.6302 129.131 23.6835 129.103 20.6549C129.1 20.4868 129.108 20.3187 129.125 20.1515ZM129.125 19.2226C129.314 16.8782 130.124 15.813 131.397 15.813C131.571 15.8094 131.744 15.8416 131.905 15.9076C132.065 15.9737 132.211 16.0721 132.332 16.1968C132.86 16.7336 133.116 17.5874 133.091 19.2004V19.2643L129.123 19.2922L129.125 19.2226Z" fill="black"/>
<path d="M142.624 20.1515L150.064 20.2655C150.092 20.0347 150.097 19.2977 150.086 19.0391C150.003 17.1591 148.695 15.0371 145.277 15.0371C141.415 15.0371 138.5 17.8655 138.5 21.7117C138.5 25.2131 141.034 27.8301 144.396 27.8301C147.094 27.8301 148.987 26.6286 150.039 24.1896L149.761 23.9505C149.425 24.4827 148.957 24.9187 148.402 25.2161C147.847 25.5134 147.225 25.6618 146.596 25.6469C144.187 25.6469 142.613 23.7002 142.585 20.6716C142.588 20.4976 142.601 20.3239 142.624 20.1515ZM142.624 19.2226C142.813 16.8782 143.623 15.813 144.896 15.813C145.07 15.8094 145.243 15.8416 145.404 15.9076C145.564 15.9737 145.71 16.0721 145.831 16.1968C146.359 16.7336 146.615 17.5874 146.59 19.2004V19.2643L142.622 19.2922L142.624 19.2226Z" fill="black"/>
<path d="M103.105 19.7733C101.461 19.142 100.224 18.6609 100.224 17.4455C100.224 16.3331 101 15.6851 102.118 15.6851C102.668 15.6855 103.208 15.8376 103.678 16.1245L105.758 19.1448L106.47 19.1169L106.331 15.0371L104.99 15.4737C104.068 15.1897 103.108 15.0426 102.143 15.0371C99.1864 15.0371 97.2146 16.5973 97.2146 19.0335C97.2146 21.2778 98.911 22.1289 100.994 22.927C102.526 23.5305 103.953 23.9616 103.953 25.5079C103.953 26.3895 103.119 27.2516 101.762 27.2516C100.338 27.2516 99.5979 26.5396 98.6691 25.1714L97.9071 23.5861L97.1756 23.7641L96.917 26.9763C98.4484 27.5229 100.061 27.8087 101.687 27.8217C105.355 27.8217 107.026 25.875 107.026 23.7419C107.021 21.3335 104.993 20.5409 103.105 19.7733Z" fill="black"/>
<path d="M65.1276 25.0908H60.7753C60.5154 25.0716 60.2719 24.9566 60.092 24.768C59.9122 24.5794 59.8088 24.3307 59.8019 24.0702C59.7967 23.9317 59.8193 23.7935 59.8684 23.6638C59.9175 23.5342 59.9921 23.4157 60.0877 23.3154C60.1834 23.215 60.2982 23.1349 60.4254 23.0797C60.5525 23.0245 60.6895 22.9953 60.8281 22.9939C60.8873 22.9895 60.9468 22.9895 61.0061 22.9939C61.4199 23.0691 61.8398 23.1054 62.2604 23.1024C65.5643 23.1024 67.803 21.3809 67.803 18.953C67.803 18.2299 67.6835 17.7043 67.2746 17.2454L68.7903 15.8549L68.4232 14.7842L65.8313 15.8521C64.7874 15.3117 63.6276 15.0339 62.4523 15.0428C59.2318 15.0428 57.0458 17.1119 57.0458 19.2951C57.0458 21.1779 58.111 22.218 59.6684 22.7631V22.7909C58.0581 23.2553 56.5842 24.3483 56.5842 25.8223C56.5842 27.1322 57.8941 28.3058 59.5071 28.4977C57.869 29.1262 56.2588 29.8632 56.2588 31.3093C56.2588 33.1393 58.0053 34.0404 61.5428 34.0404C66.0482 34.0404 69.2436 31.5374 69.2436 28.6061C69.2492 26.4146 67.5583 25.0908 65.1276 25.0908ZM61.159 16.5808C61.2794 16.3491 61.461 16.155 61.6842 16.0197C61.9073 15.8843 62.1634 15.8129 62.4244 15.8132C63.4507 15.8132 64.0931 16.6892 64.0931 19.1811C64.0931 21.6729 63.612 22.5184 62.4244 22.5184C61.4205 22.5184 60.842 21.5255 60.842 19.1505C60.8392 17.988 60.9032 17.1203 61.159 16.5808ZM61.9044 33.1004C60.1857 33.1004 59.1761 32.088 59.1761 30.6141C59.1761 29.5016 60.3887 28.531 61.49 28.531H63.815C65.7617 28.6673 66.6823 29.0873 66.6823 30.4778C66.6823 32.0269 64.1181 33.1004 61.9183 33.1004H61.9044Z" fill="black"/>
<path d="M18.2018 18.3463H9.1355V9.28003L0.0664062 0.210938V9.28003V18.3463V27.4154H9.1355H18.2018H27.2709L18.2018 18.3463Z" fill="#EE6D5A"/>
</svg>
