<svg width="84" height="41" viewBox="0 0 84 41" fill="none" xmlns="http://www.w3.org/2000/svg">
<path d="M21.9068 16.8578L0.335938 0.57251V41.0001H9.90713V20.0006L21.9068 27.8575V16.8578Z" fill="#01000E"/>
<path d="M43.3347 40.9996V0.572021L25.7637 13.8574L33.7635 20.0001V40.9996H43.3347Z" fill="#EA0B2A"/>
<path d="M68.7618 32.7135L76.476 24.2852C80.333 20.4281 82.6187 17.1425 82.6187 12.8569C82.6187 5.42849 76.476 0 66.0477 0C55.9051 0 49.3338 5.57115 49.3338 14.7138V14.9995H60.1907V14.4281C60.1907 10.2854 62.3335 7.99976 66.1905 7.99976C69.4762 7.99976 71.619 9.9996 71.619 12.8567C71.619 14.7138 70.4761 16.8565 68.0476 19.285L47.9053 40.7131H77.7617L83.4758 32.4276H68.7618V32.7135Z" fill="#EA0B2A"/>
</svg>
