<svg width="113" height="61" viewBox="0 0 113 61" fill="none" xmlns="http://www.w3.org/2000/svg">
<path d="M52.1886 40.4015C51.4221 40.7472 50.7006 41.6189 50.4902 42.4606C50.4 42.8063 50.3249 44.3394 50.3249 45.8424V48.5778L49.5283 47.8263C48.4311 46.7893 47.6195 46.5037 45.7407 46.5037C44.3429 46.5037 44.1626 46.5337 43.2457 46.9846C41.5774 47.8113 40.4652 49.3293 39.879 51.6139C38.9922 55.0407 40.5854 59.0989 43.3058 60.3464C44.1325 60.7371 44.403 60.7822 45.7407 60.7822C47.6195 60.7822 48.4311 60.4967 49.5283 59.4596L50.3249 58.7081V59.5648V60.4065H52.2036H54.0824V50.2612V40.1159H53.4511C53.0904 40.1159 52.5343 40.2512 52.1886 40.4015ZM47.9351 49.9155C48.7918 50.156 49.6335 50.9526 50.0243 51.8544C50.2948 52.5007 50.3399 52.8464 50.2948 53.8684C50.2497 54.9205 50.1896 55.2061 49.7988 55.8223C49.1375 56.8894 48.2808 57.4456 47.1836 57.5207C46.0413 57.6109 45.38 57.3704 44.6285 56.6339C43.8018 55.8073 43.5012 54.8454 43.5914 53.3273C43.6515 52.3654 43.7417 52.0197 44.1024 51.4486C44.9742 50.0357 46.4321 49.4496 47.9351 49.9155Z" fill="#024638"/>
<path d="M2.01888 41.8C1.89864 42.5966 0.275391 59.8361 0.275391 60.1667C0.275391 60.3772 0.530901 60.4072 2.00385 60.4072C3.67218 60.4072 3.7323 60.3922 3.79242 60.0615C3.83751 59.8812 4.10805 57.1307 4.40865 53.9443C4.9798 47.6617 5.08501 46.6848 5.17519 46.775C5.20525 46.805 5.97178 49.3301 6.87358 52.3812C7.77538 55.4473 8.6321 58.2279 8.76737 58.5736C9.2333 59.7158 10.3606 60.4072 11.7734 60.4072H12.3746L14.4036 53.5385C16.1471 47.6167 16.4327 46.7449 16.5379 47.1808C16.598 47.4664 16.8836 50.4122 17.1842 53.7189C17.4848 57.0255 17.7553 59.8812 17.8004 60.0615C17.8605 60.3922 17.9207 60.4072 19.589 60.4072C21.1371 60.4072 21.3175 60.3772 21.3175 60.1367C21.3175 59.7609 19.6792 42.2359 19.574 41.6497L19.4988 41.1688H17.109H14.7193L14.3585 42.3261C14.1632 42.9724 13.3064 45.8882 12.4497 48.789C11.578 51.7048 10.8415 54.0946 10.7964 54.0946C10.7513 54.0946 9.86456 51.2088 8.82749 47.6617L6.9337 41.2439L4.51386 41.1988L2.09403 41.1688L2.01888 41.8Z" fill="#024638"/>
<path d="M63.0999 47.7219C61.9125 48.5034 60.8755 49.1347 60.8153 49.1347C60.7402 49.1347 60.6951 48.6237 60.6951 48.0074V46.8802H58.8915H57.0879V53.6437V60.4072H58.8765H60.6801L60.7252 57.2058C60.7853 53.2229 60.6951 53.4183 63.2051 51.7649C64.2121 51.1036 65.2041 50.3972 65.4145 50.2018C65.9406 49.7058 66.3163 48.6688 66.2111 47.9473C66.121 47.2259 65.6851 46.279 65.4446 46.294C65.3544 46.294 64.3023 46.9403 63.0999 47.7219Z" fill="#024638"/>
<path d="M27.4187 46.669C25.9457 47.1349 24.8335 48.142 24.0369 49.7051C22.0981 53.5528 23.3906 58.7381 26.7123 60.3614C27.4638 60.7371 27.7193 60.7822 29.1321 60.7822C31.086 60.7822 31.8826 60.5117 32.9948 59.4596L33.7914 58.7081V59.5648V60.4065H35.595H37.3986V53.643V46.8794H35.595H33.7914V47.7361V48.5929L33.085 47.9015C32.0479 46.8794 31.1612 46.5337 29.5079 46.4736C28.591 46.4436 27.9147 46.5037 27.4187 46.669ZM31.9277 50.141C32.6492 50.5167 33.4307 51.4937 33.6562 52.3353C33.7463 52.681 33.7914 53.4626 33.7614 54.0488C33.6712 55.3714 33.1602 56.3183 32.1532 57.0247C31.567 57.4305 31.4017 57.4756 30.3345 57.4756C29.2674 57.4756 29.1021 57.4305 28.5009 57.0247C27.0429 55.9876 26.5319 53.643 27.3586 51.8093C28.1852 50.0057 30.2293 49.2542 31.9277 50.141Z" fill="#024638"/>
<path d="M72.2535 46.639C70.3446 47.165 68.5561 48.653 67.7595 50.3664C65.4298 55.3414 68.8266 60.8574 74.2224 60.8574C76.3266 60.8574 77.7995 60.2863 79.2274 58.9185C80.8056 57.4155 81.4669 55.8224 81.4669 53.5678C81.4669 50.156 79.5881 47.631 76.3416 46.6691C75.3647 46.3835 73.2605 46.3685 72.2535 46.639ZM75.7254 50.1109C76.9128 50.7272 77.5891 51.9897 77.5891 53.658C77.6042 55.1911 77.048 56.3484 75.9809 57.0097C74.4328 57.9566 72.4488 57.4456 71.4569 55.8524C71.0811 55.2362 71.006 54.9356 70.9458 53.8835C70.8707 52.4256 71.2014 51.4486 72.043 50.637C72.9148 49.7953 74.6432 49.5548 75.7254 50.1109Z" fill="#024638"/>
<path d="M90.2595 46.5796C89.3577 46.805 88.5912 47.2559 88.005 47.9173C87.7044 48.2629 87.4189 48.5335 87.3738 48.5335C87.3287 48.5335 87.2986 48.1577 87.2986 47.7068V46.8802H85.495H83.6914V53.6437V60.4072H85.48H87.2686L87.3287 56.304C87.3738 52.8171 87.4189 52.1257 87.6443 51.6146C88.1854 50.3822 88.9519 49.8862 90.2746 49.8862C91.3417 49.8862 92.003 50.2619 92.469 51.1637C92.7696 51.7199 92.7846 52.0505 92.8297 56.0786L92.8748 60.4072H94.6784H96.4669V55.8231C96.4669 53.0124 96.4068 50.9533 96.3016 50.4573C95.9409 48.804 94.9489 47.4814 93.5661 46.8802C92.7545 46.5195 91.1163 46.3692 90.2595 46.5796Z" fill="#024638"/>
<path d="M103.02 46.669C99.2627 47.8714 97.5492 53.2371 99.5783 57.5057C100.104 58.6329 101.277 59.8654 102.299 60.3614C103.065 60.7371 103.306 60.7822 104.734 60.7822C106.688 60.7822 107.484 60.5117 108.596 59.4596L109.393 58.7081V59.5648V60.4065H111.197H113V53.643V46.8794H111.197H109.393V47.7361V48.5929L108.687 47.9015C107.649 46.8794 106.763 46.5337 105.109 46.4736C104.193 46.4436 103.516 46.5037 103.02 46.669ZM107.574 50.171C109.663 51.2381 110.054 54.8003 108.266 56.5888C107.499 57.3554 106.778 57.6109 105.62 57.5207C103.802 57.3854 102.584 55.8674 102.584 53.7482C102.584 50.7271 105.109 48.9235 107.574 50.171Z" fill="#024638"/>
<path d="M54.6596 2.49005L52.4824 4.66725L51.1382 3.32306L49.7751 1.95994L49.4721 2.54684C49.1124 3.2284 49.0746 4.51579 49.3775 5.10269C49.4911 5.32988 50.7974 6.73086 52.2552 8.20758L54.9435 10.9149L53.713 12.1455L52.4824 13.3761L48.8852 9.77895C46.8974 7.81 45.1935 6.18183 45.0799 6.18183C44.8905 6.18183 44.6823 6.5794 44.3794 7.54495C44.3226 7.71534 44.3604 8.18864 44.474 8.58622C44.6255 9.17312 45.6289 10.2712 49.7561 14.4173C52.5581 17.2382 54.8489 19.6237 54.8489 19.7373C54.8489 19.832 54.3377 20.4189 53.713 21.0436L52.577 22.1795L46.708 16.3106C41.3502 10.9527 40.8201 10.4794 40.5361 10.7445C40.3847 10.9149 40.1764 11.3314 40.1007 11.6911C39.8356 12.9028 40.1386 13.5086 41.7667 15.1557C42.6187 16.0076 43.3002 16.7649 43.3002 16.8407C43.3002 16.9164 41.8614 16.9732 40.0818 16.9732H36.8633V17.4654C36.8633 17.7873 37.1283 18.2227 37.6016 18.696L38.34 19.4344H42.2022H46.0454L47.844 21.2329L49.6425 23.0315H44.8527H40.0818V23.448C40.0818 24.0917 40.7444 25.0572 41.3881 25.398C41.8614 25.6252 42.8269 25.682 47.1245 25.682H52.293L53.9591 27.348L55.6062 28.9951V32.5544V36.0947H56.9314H58.2567V32.4408V28.8058L59.8281 27.2345L61.3805 25.682H66.5869C71.4146 25.682 71.8311 25.6631 72.399 25.3034C73.0806 24.8869 73.4971 24.3189 73.6864 23.5427L73.819 23.0315H68.9345H64.031L65.8485 21.2329L67.666 19.4344H71.4335C74.7845 19.4344 75.2578 19.3965 75.7879 19.0747C76.318 18.7528 76.9996 17.6926 76.9996 17.1814C76.9996 17.03 75.9583 16.9732 73.6864 16.9732C71.8689 16.9732 70.3733 16.9164 70.3733 16.8407C70.3733 16.7649 71.0927 15.9887 71.9636 15.08C72.8534 14.1902 73.6296 13.2246 73.6864 12.9406C73.8568 12.2969 73.6675 11.2935 73.3078 10.8013C73.0617 10.4605 72.5505 10.9338 64.9776 18.4878L56.9314 26.534L55.663 25.2466L54.3756 23.9781L61.7023 16.6324C65.716 12.5998 69.1048 9.11632 69.2184 8.88914C69.332 8.66195 69.4267 8.20758 69.4267 7.88573C69.4267 7.29883 68.9534 6.18183 68.7073 6.18183C68.6315 6.18183 65.9621 8.79447 62.7626 11.994L56.9314 17.8251L55.663 16.5567L54.3756 15.2693L59.4305 10.2144C63.7281 5.89785 64.4854 5.0459 64.599 4.44006C64.7504 3.68278 64.6179 3.11481 64.1825 2.41432C63.8985 1.95994 63.8985 1.97888 60.3582 5.50027L56.8368 9.02166L55.6062 7.79107L54.3945 6.56047L55.8334 5.08376C57.2911 3.62598 57.6887 2.98228 57.6887 2.07354C57.6887 1.5813 57.1586 0.312842 56.9504 0.312842C56.8936 0.312842 55.8523 1.29732 54.6596 2.49005Z" fill="#024638"/>
</svg>
