<svg width="112" height="41" viewBox="0 0 112 41" fill="none" xmlns="http://www.w3.org/2000/svg">
<g clip-path="url(#clip0_2617_245245)">
<path d="M112.14 14.2649C112.002 14.4424 111.771 14.5337 111.74 14.6702C111.279 16.7244 110.247 18.4915 108.783 19.9392C107.116 21.5872 105.111 22.6737 102.744 23.1214C100.11 23.6196 97.6001 23.3075 95.2735 22.0887C91.9525 20.349 89.8589 17.6116 89.1764 13.8593C88.7195 11.3475 88.987 8.91312 90.1331 6.65568C91.8435 3.28673 94.5403 1.11167 98.3228 0.405748C98.4226 0.387116 98.5074 0.287659 98.5521 0.182331C99.8066 0.138768 101.108 0.138768 102.428 0.182329C102.584 0.289442 102.715 0.382963 102.86 0.41212C105.736 0.99146 108.034 2.47173 109.803 4.8052C110.847 6.18109 111.53 7.70869 111.874 9.39696C111.891 9.47916 112.048 9.53273 112.14 9.59964C112.14 11.133 112.14 12.6663 112.14 14.2649ZM99.8583 18.7822C100.484 18.7762 101.13 18.872 101.731 18.7475C105.336 17.9996 107.897 14.8934 107.551 11.1292C107.323 8.64064 106.054 6.82078 103.948 5.57912C102.434 4.68676 100.776 4.51603 99.0597 4.86728C96.693 5.35154 95.0427 6.78656 94.0826 8.92041C93.0802 11.1481 93.2486 13.3879 94.5747 15.4876C95.7758 17.3895 97.4943 18.4911 99.8583 18.7822Z" fill="#F5831F"/>
<path d="M0.138672 26.9143C37.2483 26.8525 74.3579 26.8525 111.524 26.8525C111.524 27.2336 111.524 27.5428 111.524 27.9656C74.4319 27.9656 37.3505 27.9656 0.203876 27.9656C0.138672 27.6358 0.138672 27.306 0.138672 26.9143Z" fill="#4A4F55"/>
<path d="M30.8086 40.626C30.7515 37.7566 30.7548 34.8872 30.7612 32.0178C30.7614 31.9526 30.7965 31.8876 30.8226 31.7976C31.3609 31.637 31.7283 31.7318 32.0882 32.2575C33.4239 34.2082 34.8212 36.1169 36.2024 38.0363C36.2994 38.1712 36.4539 38.2646 36.7109 38.4914C36.7109 36.1629 36.7109 34.0024 36.7109 31.7844C37.0578 31.7844 37.3201 31.7844 37.6827 31.7844C37.6827 34.6846 37.6827 37.5908 37.6935 40.5615C37.4202 40.626 37.1362 40.626 36.8021 40.5769C35.1529 38.2792 33.5924 36.0016 31.9198 33.8081C31.8538 33.8427 31.7877 33.8772 31.7217 33.9117C31.7217 36.1498 31.7217 38.3879 31.7217 40.626C31.4376 40.626 31.1536 40.626 30.8086 40.626Z" fill="#4A4F55"/>
<path d="M76.1653 40.6265C76.1044 37.9425 76.1241 35.2583 76.0902 32.5748C76.082 31.9288 76.2224 31.6646 76.922 31.707C77.9137 31.767 78.912 31.7046 79.9068 31.7268C81.6944 31.7667 82.8387 33.3527 82.2284 34.9461C81.8993 35.8052 81.1705 36.1647 80.3231 36.345C81.6667 37.4338 81.9965 39.1027 82.7647 40.5773C82.407 40.6265 82.0314 40.6265 81.6068 40.5748C81.2282 39.7667 80.8793 39.0181 80.5732 38.2523C80.0596 36.9669 78.7394 36.2047 77.0783 36.5785C77.0783 37.915 77.0783 39.2707 77.0783 40.6265C76.7943 40.6265 76.5102 40.6265 76.1653 40.6265ZM81.371 33.9377C81.1882 33.2176 80.7202 32.7329 80.0033 32.651C79.1375 32.5521 78.2559 32.5751 77.3819 32.5892C77.2793 32.5909 77.1019 32.8661 77.0948 33.0207C77.0629 33.713 77.0941 34.4079 77.0743 35.1011C77.0631 35.4944 77.2228 35.6318 77.6055 35.6218C78.2987 35.6037 78.9929 35.6235 79.6866 35.616C80.763 35.6045 81.256 35.1443 81.371 33.9377Z" fill="#4A4F55"/>
<path d="M91.1958 40.6262C91.1307 37.8944 91.1418 35.1626 91.1212 32.431C91.1172 31.9064 91.2433 31.6952 91.814 31.7094C93.3183 31.7469 94.8246 31.742 96.3293 31.7123C96.9226 31.7006 97.0784 31.9203 96.8795 32.5566C95.801 32.5566 94.6971 32.5564 93.5932 32.5568C93.2922 32.5569 92.977 32.5051 92.6953 32.5795C92.5195 32.6259 92.2774 32.8562 92.2667 33.0174C92.2195 33.7322 92.2661 34.4527 92.2369 35.1694C92.2182 35.6285 92.3936 35.7731 92.8407 35.7636C93.9477 35.7402 95.0556 35.7559 96.2232 35.7559C96.2412 36.0392 96.255 36.2567 96.2763 36.5914C95.1877 36.5914 94.1517 36.6337 93.1212 36.5766C92.4275 36.5382 92.1483 36.7335 92.2338 37.4554C92.317 38.1574 92.065 39.0974 92.4336 39.5076C92.7541 39.8643 93.7355 39.6384 94.4252 39.6493C95.2323 39.662 96.0399 39.6523 96.9502 39.6523C96.9502 39.976 96.9502 40.2405 96.9621 40.5656C95.0697 40.6262 93.1654 40.6262 91.1958 40.6262Z" fill="#4A4F55"/>
<path d="M16.4829 40.6262C16.4178 37.8945 16.4289 35.1627 16.4083 32.4311C16.4043 31.9066 16.5303 31.6946 17.1011 31.7095C18.559 31.7475 20.0189 31.7394 21.4774 31.7138C22.0579 31.7035 22.2426 31.9078 22.0184 32.5567C20.9489 32.5567 19.845 32.5564 18.7411 32.5568C18.4401 32.5569 18.1249 32.5051 17.8432 32.5795C17.6674 32.6259 17.4253 32.8564 17.4147 33.0175C17.3674 33.7323 17.4141 34.4528 17.3849 35.1695C17.3661 35.6287 17.5418 35.7731 17.9887 35.7637C19.0957 35.7402 20.2035 35.756 21.3712 35.756C21.3892 36.0393 21.403 36.2568 21.4242 36.5915C20.3356 36.5915 19.2996 36.6338 18.2692 36.5767C17.5754 36.5383 17.2963 36.7336 17.3818 37.4554C17.465 38.1575 17.213 39.0975 17.5815 39.5076C17.9021 39.8643 18.8835 39.6385 19.5732 39.6494C20.3803 39.6621 21.1877 39.6523 22.0981 39.6523C22.0981 39.976 22.0981 40.2406 22.1101 40.5657C20.2641 40.6262 18.4061 40.6262 16.4829 40.6262Z" fill="#4A4F55"/>
<path d="M62.2566 40.6258C62.1017 40.5123 62.0351 40.3406 61.9187 40.2943C60.734 39.8227 60.3383 38.7776 60.2789 37.6888C60.1731 35.7497 60.2491 33.8007 60.2491 31.7711C60.5554 31.7555 60.8177 31.7421 61.1692 31.7241C61.187 32.0102 61.2147 32.2536 61.2153 32.4971C61.2195 34.0505 61.2017 35.6042 61.2217 37.1573C61.2517 39.4883 63.4602 40.326 65.0595 39.3912C66.0922 38.7876 66.1606 37.7368 66.2088 36.7363C66.2758 35.3484 66.2244 33.9548 66.2277 32.5637C66.2283 32.3138 66.2483 32.064 66.2612 31.7715C66.5757 31.7715 66.8385 31.7715 67.2001 31.7715C67.2001 32.1904 67.2001 32.577 67.2 32.9637C67.1998 34.3316 67.2315 35.7005 67.1904 37.0672C67.1459 38.5457 66.6391 39.7984 65.2443 40.5763C64.2754 40.6258 63.2986 40.6258 62.2566 40.6258Z" fill="#4A4F55"/>
<path d="M106.5 40.6263C106.262 40.4717 106.098 40.3071 105.916 40.1647C105.569 39.8935 105.213 39.635 104.807 39.3307C105.132 39.0546 105.338 38.8797 105.431 38.8006C106.217 39.1211 106.91 39.4476 107.633 39.6871C108.444 39.9558 109.187 39.6422 109.834 39.1868C110.504 38.715 110.384 37.5717 109.581 37.0776C108.963 36.6968 108.234 36.5012 107.589 36.1569C106.968 35.825 106.249 35.5238 105.828 35.0031C105.072 34.0695 105.265 32.3603 107.005 31.725C107.944 31.3819 110.196 31.4838 111.056 32.639C110.84 32.8368 110.61 33.0467 110.366 33.2703C109.494 32.574 108.594 32.2197 107.512 32.5439C106.912 32.7236 106.447 33.1149 106.496 33.6874C106.533 34.1132 106.897 34.6206 107.264 34.881C107.757 35.2304 108.395 35.3734 108.969 35.6109C109.846 35.9741 110.76 36.3175 111.144 37.2911C111.653 38.5803 111.11 39.7948 109.826 40.3605C109.749 40.3945 109.69 40.4697 109.628 40.576C108.611 40.6263 107.588 40.6263 106.5 40.6263Z" fill="#4A4F55"/>
<path d="M4.09518 40.6264C3.61709 39.5139 3.21696 38.3946 2.77878 37.2903C2.05953 35.4778 1.31558 33.675 0.581055 31.8656C1.47009 31.5781 1.63509 31.6578 1.94139 32.4538C2.73329 34.5118 3.5304 36.5677 4.32799 38.6235C4.34978 38.6797 4.40079 38.7245 4.51188 38.8734C4.65794 38.576 4.78857 38.3519 4.88199 38.1132C5.61872 36.2309 6.38118 34.3576 7.06318 32.4555C7.31768 31.7457 7.70307 31.5829 8.41779 31.811C7.74482 33.4975 7.06954 35.178 6.40363 36.8623C5.92281 38.0784 5.45446 39.2995 4.99439 40.5724C4.72417 40.6264 4.44011 40.6264 4.09518 40.6264Z" fill="#4A4F55"/>
<path d="M48.6177 40.6261C48.5569 38.22 48.5351 35.8135 48.5713 33.4079C48.581 32.7598 48.435 32.4628 47.7377 32.5469C47.3042 32.5991 46.8578 32.5329 46.42 32.562C45.8404 32.6004 45.6533 32.3726 45.8592 31.7747C47.9145 31.7747 49.9847 31.7747 52.1211 31.7747C52.1364 32.0021 52.151 32.2196 52.1737 32.5566C51.5261 32.5566 50.9305 32.5932 50.3415 32.5466C49.7198 32.4974 49.5064 32.6911 49.5153 33.3465C49.5475 35.7296 49.5164 38.1135 49.52 40.5616C49.2467 40.6261 48.9627 40.6261 48.6177 40.6261Z" fill="#4A4F55"/>
<path d="M11.3271 22.802C9.5659 19.4374 7.84434 16.1147 6.1168 12.795C6.01492 12.5993 5.86489 12.4286 5.62051 12.0794C5.62051 15.8435 5.62051 19.4259 5.62051 23.0515C3.84661 23.0515 2.16917 23.0515 0.400391 23.0515C0.400391 15.6122 0.400391 8.18311 0.400391 0.696064C2.06692 0.696064 3.66241 0.684882 5.25723 0.71275C5.42317 0.71565 5.64988 0.915585 5.73897 1.0825C6.80656 3.08276 7.85034 5.0957 8.90654 7.10206C10.2247 9.60597 11.5486 12.1068 12.9257 14.7146C13.1324 14.4404 13.3218 14.2505 13.4396 14.0234C14.871 11.2649 16.2832 8.4964 17.7188 5.74012C18.5885 4.0703 19.4904 2.4172 20.3971 0.720519C22.021 0.720519 23.6854 0.720519 25.4055 0.720519C25.4055 8.14047 25.4055 15.567 25.4055 23.0446C23.8034 23.0446 22.1725 23.0446 20.4517 23.0446C20.4517 19.4172 20.4517 15.7785 20.4517 12.1397C20.3987 12.1257 20.3456 12.1118 20.2926 12.0978C19.9984 12.6091 19.686 13.1108 19.4131 13.6333C17.9952 16.3483 16.5537 19.052 15.1947 21.7965C14.7331 22.7285 14.238 23.3358 13.0952 23.1091C12.6714 23.025 12.2156 23.1154 11.7774 23.0837C11.6351 23.0734 11.5025 22.928 11.3271 22.802Z" fill="#F5831F"/>
<path d="M60.4848 8.9344C61.9414 10.815 63.3625 12.6596 64.7836 14.5042C64.8308 14.4852 64.878 14.4661 64.9252 14.447C64.9252 9.90046 64.9252 5.3539 64.9252 0.751494C66.6686 0.751494 68.3459 0.751494 70.073 0.751494C70.073 8.15322 70.073 15.58 70.073 23.0924C68.4462 23.0924 66.8096 23.1003 65.1734 23.0789C65.0273 23.077 64.8466 22.9132 64.7443 22.7776C62.5164 19.8238 60.3021 16.8597 58.0746 13.9055C57.0215 12.509 55.9471 11.1285 54.8786 9.74365C54.8294 9.67996 54.7423 9.64558 54.5833 9.53564C54.5833 14.0803 54.5833 18.5348 54.5833 23.0422C52.8404 23.0422 51.163 23.0422 49.4385 23.0422C49.4385 15.6323 49.4385 8.20557 49.4385 0.696871C50.9582 0.696871 52.4813 0.658553 53.9991 0.731161C54.2821 0.744698 54.5862 1.17114 54.8086 1.46203C56.6982 3.93362 58.5712 6.41795 60.4848 8.9344Z" fill="#F5831F"/>
<path d="M29.7734 17.6699C29.7734 11.994 29.7734 6.38774 29.7734 0.73877C35.1577 0.73877 40.4978 0.73877 45.8753 0.73877C45.8753 2.22582 45.8753 3.70126 45.8753 5.24787C42.2229 5.24787 38.5515 5.24787 34.8313 5.24787C34.8313 6.76309 34.8313 8.20856 34.8313 9.72556C38.1265 9.72556 41.4271 9.72556 44.7632 9.72556C44.7632 11.1785 44.7632 12.5611 44.7632 14.0151C41.479 14.0151 38.1784 14.0151 34.8302 14.0151C34.8302 15.5305 34.8302 16.9759 34.8302 18.4928C38.4996 18.4928 42.171 18.4928 45.8772 18.4928C45.8772 20.0384 45.8772 21.5137 45.8772 23.0427C40.5496 23.0427 35.2093 23.0427 29.7734 23.0427C29.7734 21.2887 29.7734 19.5141 29.7734 17.6699Z" fill="#F5831F"/>
<path d="M81.948 23.0959C79.3795 23.0959 76.8806 23.0959 74.3389 23.0959C74.3389 15.6278 74.3389 8.2033 74.3389 0.737305C76.019 0.737305 77.6956 0.737305 79.4402 0.737305C79.4402 6.64918 79.4402 12.5443 79.4402 18.4841C82.6047 18.4841 85.7021 18.4841 88.8519 18.4841C88.8519 20.0191 88.8519 21.5107 88.8519 23.0959C86.5853 23.0959 84.3014 23.0959 81.948 23.0959Z" fill="#F5831F"/>
</g>
<defs>
<clipPath id="clip0_2617_245245">
<rect width="112" height="40.487" fill="white"/>
</clipPath>
</defs>
</svg>
