<svg width="30" height="34" viewBox="0 0 30 34" fill="none" xmlns="http://www.w3.org/2000/svg">
<path d="M26.6667 3.4H19.7C19 1.428 17.1667 0 15 0C12.8333 0 11 1.428 10.3 3.4H3.33333C1.5 3.4 0 4.93 0 6.8V30.6C0 32.47 1.5 34 3.33333 34H26.6667C28.5 34 30 32.47 30 30.6V6.8C30 4.93 28.5 3.4 26.6667 3.4ZM15 3.4C15.9167 3.4 16.6667 4.165 16.6667 5.1C16.6667 6.035 15.9167 6.8 15 6.8C14.0833 6.8 13.3333 6.035 13.3333 5.1C13.3333 4.165 14.0833 3.4 15 3.4ZM11.6667 27.2L5 20.4L7.35 18.003L11.6667 22.389L22.65 11.186L25 13.6L11.6667 27.2Z" fill="#FD243E"/>
</svg>
