<svg width="28" height="36" viewBox="0 0 28 36" fill="none" xmlns="http://www.w3.org/2000/svg">
<path d="M24.5 12H22.75V8.57143C22.75 3.84 18.83 0 14 0C9.17 0 5.25 3.84 5.25 8.57143V12H3.5C1.575 12 0 13.5429 0 15.4286V32.5714C0 34.4571 1.575 36 3.5 36H24.5C26.425 36 28 34.4571 28 32.5714V15.4286C28 13.5429 26.425 12 24.5 12ZM14 27.4286C12.075 27.4286 10.5 25.8857 10.5 24C10.5 22.1143 12.075 20.5714 14 20.5714C15.925 20.5714 17.5 22.1143 17.5 24C17.5 25.8857 15.925 27.4286 14 27.4286ZM19.425 12H8.575V8.57143C8.575 5.64 11.0075 3.25714 14 3.25714C16.9925 3.25714 19.425 5.64 19.425 8.57143V12Z" fill="#FD243E"/>
</svg>
