<svg width="25" height="25" viewBox="0 0 25 25" fill="none" xmlns="http://www.w3.org/2000/svg">
<path d="M12.3398 22.0791C7.11373 22.0791 2.85937 17.8247 2.85937 12.5986C2.85937 7.37252 7.11373 3.11816 12.3398 3.11816C17.5659 3.11816 21.8203 7.37252 21.8203 12.5986C21.8203 17.8247 17.5659 22.0791 12.3398 22.0791ZM12.3398 0.748047C10.7836 0.748047 9.24259 1.05457 7.80481 1.65012C6.36703 2.24567 5.06064 3.11857 3.96021 4.219C1.7378 6.44141 0.489258 9.45565 0.489258 12.5986C0.489258 15.7416 1.7378 18.7558 3.96021 20.9782C5.06064 22.0787 6.36703 22.9516 7.80481 23.5471C9.24259 24.1427 10.7836 24.4492 12.3398 24.4492C15.4828 24.4492 18.497 23.2007 20.7195 20.9782C22.9419 18.7558 24.1904 15.7416 24.1904 12.5986C24.1904 11.0424 23.8839 9.50138 23.2883 8.0636C22.6928 6.62582 21.8199 5.31943 20.7195 4.219C19.619 3.11857 18.3126 2.24567 16.8748 1.65012C15.4371 1.05457 13.8961 0.748047 12.3398 0.748047ZM9.96972 17.9314L17.0801 12.5986L9.96972 7.26586V17.9314Z" fill="#141011"/>
</svg>
