<svg width="89" height="82" viewBox="0 0 89 82" fill="none" xmlns="http://www.w3.org/2000/svg">
<path d="M63.9299 78.1779C62.9993 78.1779 62.0687 78.1699 61.1381 78.1806C60.7515 78.1859 60.7088 78.3779 60.9061 78.6792C61.2848 79.2605 61.4288 79.9644 62.1674 80.3351C62.938 80.7217 63.7059 80.559 64.4632 80.5457C64.9511 80.5377 65.4177 80.2044 65.7244 79.7778C65.9564 79.4578 66.1057 79.5618 66.2977 79.7964C66.439 79.9671 66.5936 80.1297 66.767 80.2657C66.9776 80.4284 66.8896 80.5484 66.7296 80.6444C66.0923 81.0257 65.4844 81.5056 64.7965 81.7483C63.7192 82.1322 62.586 82.0176 61.5887 81.4656C60.4128 80.815 60.0075 80.2791 59.6342 78.9885C59.109 77.1727 59.5489 74.8449 61.5567 73.829C63.2339 72.981 65.0844 73.309 66.1697 74.6182C66.7083 75.2662 66.9883 76.0688 67.1749 76.8554C67.4522 78.0393 67.2789 78.1726 66.055 78.1753C65.3457 78.1753 64.6365 78.1753 63.9272 78.1753L63.9299 78.1779ZM63.1406 77.1113C63.8445 77.1113 64.5485 77.1033 65.2524 77.1167C65.5484 77.122 65.6497 76.9887 65.5991 76.7247C65.5537 76.4821 65.5191 76.2288 65.4204 76.0074C65.0498 75.1702 64.5351 74.6342 63.4739 74.6822C62.6393 74.7196 61.9247 74.8129 61.4474 75.5462C61.2021 75.9221 60.9968 76.3274 60.8181 76.738C60.7835 76.818 60.9461 77.0954 61.0261 77.098C61.7301 77.1274 62.434 77.114 63.1379 77.114L63.1406 77.1113Z" fill="#7E8386"/>
<path d="M27.165 78.1782C26.2344 78.1782 25.3039 78.1729 24.3733 78.1809C23.9893 78.1862 23.92 78.3089 24.1013 78.6609C24.4826 79.3995 24.7679 80.3194 25.6852 80.482C26.8131 80.682 28.0263 80.8767 28.9195 79.8021C29.1115 79.5701 29.2688 79.4475 29.4928 79.7808C29.6128 79.9621 29.7888 80.1141 29.9595 80.2501C30.1354 80.3914 30.1648 80.506 29.9595 80.6287C29.2875 81.0367 28.6582 81.6019 27.9276 81.8126C26.8984 82.1112 25.7838 82.0232 24.8159 81.49C23.6427 80.8447 23.28 80.3727 22.8614 79.0102C22.3068 77.2103 22.7814 74.8799 24.7439 73.8346C25.5358 73.4107 26.3838 73.2187 27.2077 73.4133C27.9516 73.5893 28.7702 73.7893 29.2768 74.5039C29.9968 75.5198 30.5034 76.6077 30.3994 77.8876C30.3914 77.9916 30.1994 78.1596 30.0901 78.1622C29.1142 78.1836 28.1409 78.1756 27.165 78.1756V78.1782ZM26.3358 77.1117C27.0397 77.1117 27.7436 77.101 28.4476 77.117C28.7329 77.1223 28.8582 77.0183 28.8102 76.741C28.7676 76.4984 28.7382 76.2424 28.6422 76.0184C28.2849 75.1678 27.7303 74.7385 26.7064 74.6692C25.4345 74.5839 24.8106 75.2105 24.2933 76.1678C24.216 76.3091 24.1733 76.4717 24.104 76.6184C23.928 76.9943 23.9706 77.101 24.3493 77.109C25.0106 77.1223 25.6692 77.1117 26.3304 77.1117H26.3358Z" fill="#7E8386"/>
<path d="M31.7467 77.5066C31.7467 76.4 31.7414 75.2908 31.752 74.1842C31.752 73.9922 31.6214 73.6723 31.952 73.6616C32.3253 73.6483 32.7039 73.7416 33.0772 73.8056C33.0906 73.8056 33.0639 73.9762 33.0826 74.0589C33.1146 74.2055 32.9759 74.6055 33.3679 74.2882C34.1518 73.6509 35.0051 73.291 36.0503 73.3683C37.1196 73.4483 38.4608 74.5468 38.6768 75.6214C38.7594 76.0294 38.8901 76.4293 38.9327 76.84C38.9781 77.2773 38.9434 77.7252 38.9434 78.1679C38.9434 79.1438 38.9034 80.1197 38.9594 81.0903C38.9914 81.6209 38.7834 81.6982 38.3514 81.6476C38.1328 81.6209 37.9088 81.6316 37.6875 81.6476C37.3809 81.6689 37.3355 81.5089 37.3382 81.2476C37.3489 79.7864 37.3435 78.3225 37.3435 76.8613C37.3435 75.2374 36.8076 74.7095 35.2237 74.7095C34.2718 74.7095 33.6479 75.1255 33.2319 75.992C33.0826 76.3014 33.0879 76.5707 33.0852 76.8613C33.0719 78.2799 33.0692 79.6957 33.0852 81.1143C33.0906 81.4822 33.0479 81.7222 32.6026 81.6502C32.5173 81.6369 32.424 81.6369 32.3386 81.6502C31.9093 81.7115 31.7067 81.6289 31.7307 81.0983C31.784 79.9037 31.7467 78.7065 31.7467 77.5119V77.5066Z" fill="#7E8386"/>
<path d="M52.8086 77.6688C52.8086 78.6874 52.8086 79.706 52.8086 80.7246C52.8086 81.6791 52.8033 81.6365 51.9234 81.6578C51.2808 81.6711 51.5314 81.2418 51.4754 80.9485C51.4514 80.8285 51.4008 80.7139 51.3634 80.5966C51.3128 80.6952 51.2594 80.7939 51.2114 80.8952C50.9101 81.5458 50.2035 81.7138 49.6756 81.8711C47.6411 82.4764 45.6386 80.8712 45.6173 78.7247C45.6013 77.1755 45.6253 75.6237 45.6066 74.0718C45.6013 73.7065 45.7373 73.6105 46.0652 73.6425C46.2412 73.6612 46.4199 73.6558 46.5958 73.6425C46.8945 73.6185 46.9558 73.7678 46.9531 74.0371C46.9425 75.2344 46.9478 76.4289 46.9478 77.6262C46.9478 78.5541 47.1105 78.6687 47.4358 79.6793C47.6304 80.2819 48.0997 80.4259 48.433 80.5379C49.8782 81.0285 51.4541 79.818 51.4754 78.2821C51.4941 76.9089 51.4914 75.5357 51.4701 74.1625C51.4647 73.7758 51.5501 73.5785 51.9714 73.6425C52.102 73.6612 52.238 73.6585 52.3687 73.6425C52.7073 73.5998 52.8246 73.7252 52.8193 74.0798C52.798 75.2744 52.8113 76.4716 52.8113 77.6688H52.8086Z" fill="#7E8386"/>
<path d="M71.3555 81.9436C69.9956 81.869 68.9664 81.453 68.0011 80.8424C67.9238 80.7917 67.7931 80.6771 67.8011 80.6611C67.9745 80.3758 68.1478 80.0825 68.3691 79.8371C68.4224 79.7785 68.6837 79.8478 68.8037 79.9278C69.6996 80.5171 70.6782 80.6371 71.7315 80.6024C72.2887 80.5837 72.5154 80.2158 72.7714 79.9038C73.0273 79.5892 72.7474 78.8986 72.3074 78.7226C71.5448 78.4186 70.7555 78.1866 69.9823 77.9093C69.673 77.8 69.329 77.712 69.089 77.5093C68.769 77.2347 68.3344 76.8747 68.3104 76.5254C68.2704 75.9068 68.0731 75.2535 68.4731 74.6136C68.9557 73.8377 69.7236 73.5817 70.4889 73.4057C71.6675 73.1337 72.694 73.771 73.7393 74.203C73.8166 74.235 73.8806 74.435 73.8593 74.5389C73.7126 75.2002 73.382 75.3309 72.7074 75.0216C71.8248 74.6163 70.8142 74.6936 70.0009 74.9389C69.5316 75.0802 69.585 75.3042 69.6143 75.5815C69.6436 75.8668 69.4516 76.1521 69.9876 76.3788C70.5875 76.6321 71.2142 76.8481 71.8141 77.1147C72.2647 77.312 72.7874 77.392 73.1793 77.6667C74.5019 78.5919 74.5419 80.4584 73.1793 81.3517C72.622 81.717 71.9448 82.1436 71.3608 81.949L71.3555 81.9436Z" fill="#7E8386"/>
<path d="M15.1608 73.6482C15.3395 73.6482 15.5261 73.6109 15.6888 73.6589C15.8141 73.6962 15.9581 73.8189 16.0061 73.9389C16.2061 74.4348 16.3527 74.9494 16.5527 75.4454C17.0753 76.7386 17.6086 78.0265 18.1579 79.3091C18.2326 79.485 18.4299 79.6077 18.5712 79.757C18.6085 79.5944 18.6405 79.4317 18.6805 79.2691C18.8112 78.7491 19.1125 78.3038 19.2725 77.7785C19.6298 76.6106 20.2244 75.5147 20.739 74.3948C20.859 74.1335 20.9977 73.7762 21.2163 73.6855C21.5203 73.5629 21.9122 73.6349 22.2642 73.6615C22.3202 73.6669 22.4269 73.8909 22.4002 73.9762C22.2456 74.4428 22.1176 74.9361 21.8669 75.3494C20.907 76.9439 20.4777 78.7784 19.5525 80.3863C19.3711 80.6983 19.3445 81.0982 19.2058 81.4395C19.0618 81.7968 18.7845 81.9328 18.3792 81.9222C17.9713 81.9088 17.7499 81.7515 17.6086 81.3782C17.27 80.4983 16.9233 79.6184 16.542 78.7571C16.1607 77.8932 15.7635 77.0399 15.4355 76.152C15.1662 75.4241 14.7502 74.7495 14.4302 74.0375C14.3929 73.9522 14.5262 73.7095 14.6355 73.6615C14.7822 73.5949 14.9822 73.6456 15.1608 73.6456V73.6482Z" fill="#7E8386"/>
<path d="M40.8094 77.378C40.8094 76.7567 40.8094 76.1354 40.8094 75.5168C40.8068 74.8342 40.8094 74.8022 40.0708 74.7275C39.6229 74.6822 39.7589 74.3969 39.7482 74.1649C39.7375 73.9169 39.6602 73.661 40.1002 73.6316C40.8041 73.5863 40.8014 73.5463 40.8094 72.9464C40.8121 72.5917 40.8094 72.2371 40.8094 71.8824C40.8094 71.1838 40.7321 71.2532 41.4494 71.2452C42.284 71.2372 42.124 71.2345 42.148 71.9598C42.164 72.5197 42.228 73.077 42.268 73.637C42.7986 73.637 43.3292 73.6423 43.8598 73.645C44.0385 73.645 44.2171 73.6636 44.3904 73.6423C44.9264 73.573 44.7851 73.9569 44.8064 74.2396C44.8277 74.5329 44.8064 74.7782 44.4011 74.7142C44.2705 74.6929 44.1345 74.7062 44.0038 74.7142C43.3959 74.7435 42.7879 74.7755 42.18 74.8075C42.1666 75.4235 42.148 76.0368 42.1426 76.6527C42.1373 77.45 42.1293 78.2499 42.148 79.0472C42.1533 79.2951 42.196 79.5564 42.2893 79.7831C42.6066 80.5617 43.1932 80.7883 44.1771 80.5404C44.3638 80.4924 44.5424 80.423 44.7264 80.3644C44.7531 80.5297 44.7691 80.7003 44.8117 80.863C44.9771 81.5056 44.5531 81.5243 44.0971 81.7482C43.0732 82.2495 42.3133 81.6469 41.4627 81.3669C41.34 80.799 40.7881 80.4124 40.8041 79.7751C40.8254 78.9778 40.8094 78.1779 40.8094 77.3806V77.378Z" fill="#7E8386"/>
<path d="M54.6713 77.6177C54.6713 76.5992 54.6713 75.5806 54.6713 74.5647C54.6713 73.6128 54.6766 73.6288 55.5592 73.6394C55.8925 73.6447 56.0525 73.7194 56.0072 74.0794C55.9859 74.2527 55.9885 74.434 56.0072 74.61C56.0205 74.73 56.0765 74.8446 56.1165 74.962C56.2098 74.882 56.3192 74.8126 56.3965 74.7193C56.8658 74.146 57.4817 73.7807 58.1537 73.5114C58.383 73.4208 58.6496 73.3888 58.8976 73.3994C59.0043 73.4048 59.1749 73.5754 59.1882 73.6901C59.2282 73.9941 59.1882 74.3087 59.2069 74.618C59.2229 74.906 59.1002 74.9726 58.8256 74.9913C57.1191 75.1166 56.0099 76.3432 56.0045 78.0897C55.9992 79.1083 55.9859 80.1268 56.0125 81.1428C56.0232 81.5454 55.9059 81.7107 55.5006 81.652C55.3699 81.6334 55.2339 81.6334 55.1033 81.652C54.7486 81.7 54.658 81.5427 54.6633 81.2067C54.682 80.0122 54.6713 78.8176 54.6713 77.6204V77.6177Z" fill="#7E8386"/>
<path fill-rule="evenodd" clip-rule="evenodd" d="M47.8171 4.40052C43.4575 4.40052 39.5113 6.2283 36.676 9.17988L36.6792 9.19668C33.5791 5.11161 28.6383 2.47974 23.1162 2.47974C13.6866 2.47974 6.03318 10.1009 6.03318 19.5304C6.03075 21.8634 6.50894 24.1719 7.43793 26.312C3.059 28.8954 0.107422 33.6748 0.107422 39.1646C0.107422 47.3347 6.6629 53.987 14.7684 53.987C15.782 53.9876 16.7929 53.8824 17.7846 53.6731C20.0128 59.7119 25.7933 64.0069 32.6071 64.0069C39.1303 64.0069 44.7331 60.0349 47.1389 54.3836C49.0297 55.3056 51.1064 55.7828 53.21 55.7787C58.3769 55.7787 62.914 52.9046 65.2876 48.6742C66.5082 48.917 67.7548 49.0456 69.0336 49.0456C79.4965 49.0456 87.9895 40.4879 87.9895 29.9281C87.9895 19.3683 79.4965 10.8107 69.0336 10.8107C66.396 10.8093 63.788 11.3651 61.3801 12.4415C58.6675 7.62982 53.6298 4.40052 47.8171 4.40052ZM52.5653 24.1138C52.4 24.0638 52.2319 24.0239 52.0618 23.9943C51.8331 23.9561 51.6014 23.9381 51.3695 23.9407C50.4482 23.9407 49.7219 24.2009 49.212 24.715C48.7056 25.2253 48.3611 26.0026 48.1883 27.0253L48.126 27.3705H46.9696C46.9696 27.3705 46.8284 27.3647 46.7987 27.5187L46.6088 28.5779C46.5956 28.6793 46.6392 28.7426 46.7748 28.742H47.9006L46.7584 35.1176C46.6689 35.631 46.5665 36.0534 46.4532 36.3735C46.3415 36.6893 46.2323 36.926 46.098 37.0978C45.9678 37.2641 45.8445 37.3865 45.6317 37.4579C45.456 37.517 45.2538 37.5441 45.0323 37.5441C44.9089 37.5441 44.7449 37.5234 44.6238 37.4992C44.5056 37.4759 44.4428 37.4495 44.3555 37.4128L44.349 37.4101C44.349 37.4101 44.2169 37.3597 44.1649 37.4921C44.1226 37.6003 43.8226 38.4254 43.7871 38.5274C43.7509 38.6282 43.8016 38.7076 43.8656 38.7305C44.0154 38.7841 44.1268 38.8184 44.3309 38.8665C44.6144 38.9333 44.8534 38.9375 45.0772 38.9375C45.5461 38.9375 45.9733 38.8716 46.3276 38.7438C46.6841 38.6149 46.9944 38.3905 47.2689 38.0866C47.5657 37.7588 47.7523 37.4156 47.9309 36.9473C48.1076 36.4833 48.258 35.9071 48.3785 35.2358L49.5262 28.742H51.2041C51.2041 28.742 51.3456 28.7471 51.375 28.5938L51.5648 27.5345C51.5781 27.4331 51.5348 27.3699 51.3985 27.3705H49.77C49.7705 27.368 49.7714 27.3632 49.7725 27.3561C49.7736 27.3493 49.775 27.3405 49.7767 27.3298C49.7993 27.1845 49.8765 26.6903 50.039 26.2215C50.1188 25.9913 50.2689 25.8056 50.3962 25.678C50.515 25.5565 50.6613 25.4655 50.8228 25.4126C50.9997 25.3579 51.1842 25.3313 51.3695 25.3338C51.5229 25.3338 51.6734 25.3522 51.788 25.3761C51.9459 25.4097 52.0073 25.4274 52.0486 25.4397C52.2146 25.4904 52.2369 25.4413 52.2695 25.3609L52.6589 24.2914C52.699 24.1764 52.6015 24.128 52.5653 24.1138ZM29.8071 35.1311C29.8071 35.2164 29.7464 35.2858 29.6612 35.2858H28.3104C28.2248 35.2858 28.1641 35.2164 28.1641 35.1311V24.2587C28.1641 24.1738 28.2248 24.105 28.3104 24.105H29.6612C29.7464 24.105 29.8071 24.1738 29.8071 24.2587V35.1311ZM12.9086 34.3686C12.863 34.4877 12.9063 34.5289 12.9327 34.554C12.9382 34.5592 12.943 34.5638 12.9461 34.5682C13.0726 34.6598 13.2006 34.732 13.329 34.8045L13.3291 34.8046C13.3683 34.8266 13.4074 34.8488 13.4466 34.8714C14.3444 35.3461 15.1905 35.485 16.0753 35.485C17.8772 35.485 18.9978 34.5259 18.9978 32.9823V32.9519C18.9978 31.5246 17.7319 31.0047 16.55 30.6333L16.3953 30.5833C15.5008 30.2933 14.729 30.0407 14.729 29.453V29.423C14.729 28.9192 15.1811 28.5478 15.8786 28.5478C16.6537 28.5478 17.5772 28.8058 18.1682 29.1323C18.1682 29.1323 18.3432 29.2454 18.4068 29.0765C18.4414 28.9851 18.7427 28.1787 18.775 28.0883C18.8092 27.9937 18.7492 27.9223 18.6875 27.8855C18.0093 27.4721 17.0728 27.1912 16.104 27.1912L15.9242 27.1918C14.274 27.1918 13.1211 28.1897 13.1211 29.617V29.6477C13.1211 31.1526 14.3935 31.6434 15.5819 31.9825L15.773 32.0419C16.6385 32.308 17.3877 32.5392 17.3877 33.1463V33.1767C17.3877 33.7354 16.9001 34.152 16.1186 34.152C15.8147 34.152 14.8462 34.1468 13.7967 33.4835C13.7212 33.4395 13.6651 33.4028 13.6113 33.3678C13.5747 33.3439 13.5393 33.3207 13.4996 33.2965C13.4479 33.2652 13.3188 33.2087 13.2626 33.3779L12.9074 34.3661L12.9086 34.3686ZM39.2907 34.3661C39.2449 34.4855 39.2887 34.5266 39.3154 34.5517L39.3155 34.5517C39.3209 34.5568 39.3257 34.5613 39.3288 34.5656C39.4544 34.6569 39.5823 34.729 39.7106 34.8013L39.711 34.8016C39.7505 34.8238 39.7899 34.846 39.8294 34.8689C40.7271 35.3436 41.5732 35.4824 42.458 35.4824C44.26 35.4824 45.3805 34.5233 45.3805 32.9797V32.9494C45.3805 31.522 44.1179 31.0021 42.9327 30.6307L42.778 30.5807C41.8835 30.2907 41.1117 30.0381 41.1117 29.4504V29.4204C41.1117 28.9166 41.5638 28.5452 42.2613 28.5452C43.0364 28.5452 43.9567 28.8033 44.5509 29.1297C44.5509 29.1297 44.7259 29.2428 44.7899 29.0739C44.8241 28.9825 45.1257 28.1761 45.1548 28.0857C45.1894 27.9911 45.129 27.9197 45.0676 27.8829C44.3895 27.4696 43.453 27.1886 42.4842 27.1886L42.304 27.1893C40.6538 27.1893 39.5009 28.1871 39.5009 29.6145V29.6451C39.5009 31.15 40.7733 31.6409 41.9617 31.9799L42.1525 32.0393C43.0212 32.3054 43.7672 32.5367 43.7672 33.1438V33.1741C43.7672 33.7328 43.2795 34.1494 42.4981 34.1494C42.1935 34.1494 41.2225 34.1442 40.1762 33.4809C40.078 33.4237 40.0114 33.3802 39.9417 33.3348L39.8788 33.2939C39.8462 33.2733 39.6941 33.2138 39.6421 33.3753L39.2868 34.3635L39.2907 34.3661ZM57.3063 31.3425C57.3061 32.2136 57.1434 32.9009 56.8252 33.3882C56.5074 33.8694 56.0275 34.1051 55.3591 34.1051C54.6906 34.1051 54.2127 33.8713 53.8994 33.3915C53.5839 32.9071 53.4247 32.216 53.4247 31.3441C53.4247 30.4722 53.5849 29.7876 53.8994 29.3064C54.212 28.8285 54.6874 28.5992 55.3591 28.5992C56.0308 28.5992 56.5087 28.8307 56.8252 29.3064C57.1453 29.7873 57.3061 30.4713 57.3063 31.3425ZM57.3063 31.3425C57.3063 31.343 57.3063 31.3435 57.3063 31.3441V31.3408C57.3063 31.3414 57.3063 31.3419 57.3063 31.3425ZM58.8112 29.7262C58.663 29.2257 58.4334 28.7865 58.1266 28.4183C57.8195 28.0502 57.4323 27.7531 56.9705 27.54C56.5119 27.3252 55.9694 27.217 55.3558 27.217C54.7423 27.217 54.203 27.3259 53.7412 27.54C53.2826 27.7544 52.8919 28.0502 52.5851 28.4183C52.279 28.7865 52.049 29.2257 51.9005 29.7262C51.7535 30.2235 51.6789 30.766 51.6789 31.3441C51.6789 31.9221 51.7535 32.4646 51.9005 32.962C52.0481 33.4625 52.2783 33.9017 52.5851 34.2698C52.8922 34.638 53.2826 34.9318 53.7412 35.1417C54.203 35.351 54.7455 35.4576 55.3558 35.4576C55.9662 35.4576 56.5087 35.351 56.9673 35.1417C57.4258 34.9325 57.8166 34.638 58.1233 34.2698C58.4298 33.9017 58.6594 33.4625 58.808 32.962C58.9546 32.4646 59.0292 31.9221 59.0292 31.3441C59.0292 30.7693 58.9546 30.2235 58.808 29.7262H58.8112ZM71.1762 33.8597C71.1268 33.7134 70.984 33.7686 70.984 33.7686C70.7654 33.8523 70.5319 33.9298 70.2833 33.9685C70.0327 34.0079 69.7537 34.0276 69.4598 34.0276C68.7332 34.0276 68.1519 33.8109 67.7386 33.3818C67.322 32.9523 67.0895 32.2612 67.0927 31.3247C67.095 30.4722 67.301 29.8328 67.6708 29.3419C68.0357 28.8575 68.5976 28.6056 69.3403 28.6056C69.9603 28.6056 70.435 28.6776 70.9324 28.8333C70.9324 28.8333 71.0502 28.8846 71.1067 28.7293C71.1501 28.6094 71.1898 28.5006 71.2286 28.3944C71.3077 28.1775 71.3829 27.9712 71.4781 27.7024C71.5182 27.5878 71.42 27.5393 71.3841 27.5254C71.1891 27.4492 70.7286 27.3242 70.3798 27.2716C70.0537 27.2219 69.6758 27.196 69.2496 27.196C68.6166 27.196 68.0547 27.3042 67.5736 27.5187C67.0924 27.7328 66.6855 28.0289 66.3626 28.397C66.0396 28.7652 65.7942 29.2043 65.6295 29.7049C65.4664 30.2022 65.3841 30.7479 65.3841 31.326C65.3841 32.5725 65.7199 33.5833 66.3852 34.3228C67.0504 35.0655 68.0515 35.4401 69.3561 35.4401C70.1279 35.4401 70.9191 35.2841 71.4875 35.0591C71.4875 35.0591 71.596 35.0067 71.5488 34.8802L71.1775 33.8597H71.1762ZM73.8093 30.5012L73.8094 30.5006L77.4423 30.5012C77.4081 30.033 77.3164 29.6148 77.1065 29.2999C76.79 28.8233 76.3476 28.5604 75.6791 28.5604C75.0106 28.5604 74.535 28.822 74.2227 29.2999C74.0142 29.613 73.8815 30.0165 73.8094 30.5006L73.7932 30.5006L73.8093 30.5012ZM78.8793 29.4356C78.7511 28.9544 78.4337 28.4668 78.227 28.244C77.8976 27.892 77.5779 27.6433 77.2582 27.5077C76.7967 27.3114 76.3001 27.2107 75.7986 27.2115C75.1624 27.2115 74.5844 27.3191 74.1161 27.5377C73.6479 27.7579 73.2539 28.0576 72.9439 28.4322C72.6342 28.8068 72.4014 29.2492 72.2528 29.7562C72.1043 30.2568 72.0293 30.8058 72.0293 31.3806C72.0293 31.9683 72.1072 32.5141 72.2602 33.0081C72.4149 33.5054 72.6639 33.9414 72.9998 34.3031C73.3356 34.668 73.7651 34.9522 74.2818 35.1524C74.7952 35.351 75.4185 35.454 76.1322 35.4517C77.6047 35.4469 78.3798 35.1191 78.6962 34.9415C78.7527 34.9099 78.806 34.8553 78.7395 34.698L78.4069 33.7648C78.3559 33.6256 78.2151 33.676 78.2151 33.676C78.1828 33.688 78.1494 33.7009 78.1144 33.7144C77.7534 33.8536 77.2265 34.0567 76.1225 34.0538C75.3313 34.0525 74.7468 33.819 74.3787 33.4531C74.0041 33.0785 73.8168 32.5328 73.7877 31.7577L78.89 31.7616C78.89 31.7616 79.0243 31.7603 79.0382 31.6292C79.0386 31.6259 79.0395 31.6192 79.0409 31.6091C79.0625 31.4537 79.193 30.5132 78.8861 29.4365L78.8793 29.4356ZM33.0233 30.5012L33.0234 30.5006L36.6563 30.5012C36.6217 30.033 36.53 29.6148 36.3204 29.2999C36.0039 28.8233 35.5615 28.5604 34.8931 28.5604C34.2246 28.5604 33.7492 28.822 33.4366 29.2999C33.2285 29.613 33.0954 30.0165 33.0234 30.5006L33.0071 30.5006L33.0233 30.5012ZM38.0933 29.4356C37.9654 28.9544 37.6476 28.4668 37.441 28.244C37.1116 27.892 36.7919 27.6433 36.4722 27.5077C36.0106 27.3114 35.5141 27.2107 35.0125 27.2115C34.3764 27.2115 33.7983 27.3191 33.3301 27.5377C32.8618 27.7579 32.4679 28.0576 32.1578 28.4322C31.8488 28.8068 31.6153 29.2492 31.4668 29.7562C31.3186 30.2568 31.244 30.8058 31.244 31.3806C31.244 31.9683 31.3211 32.5141 31.4752 33.0081C31.6295 33.5054 31.8788 33.9414 32.2115 34.3031C32.5473 34.668 32.9768 34.9522 33.4935 35.1524C34.0069 35.351 34.627 35.454 35.3439 35.4517C36.8164 35.4469 37.5915 35.1191 37.9079 34.9415C37.9641 34.9099 38.0177 34.8553 37.9509 34.698L37.6183 33.7648C37.5669 33.6256 37.4261 33.676 37.4261 33.676C37.3939 33.688 37.3604 33.7009 37.3255 33.7144C36.9645 33.8536 36.4375 34.0567 35.3335 34.0538C34.5456 34.0525 33.9579 33.819 33.5897 33.4531C33.2151 33.0785 33.0278 32.5328 32.9988 31.7577L38.101 31.7616C38.101 31.7616 38.2354 31.7603 38.2493 31.6292C38.2496 31.6259 38.2505 31.6192 38.2519 31.6091C38.2735 31.4537 38.4041 30.5132 38.0968 29.4365L38.0933 29.4356ZM22.0114 33.8274C21.8115 33.6679 21.7837 33.6288 21.7175 33.5251C21.6164 33.3692 21.5648 33.1473 21.5648 32.8631C21.5648 32.4175 21.7133 32.0946 22.0201 31.8782C22.0169 31.8788 22.4593 31.4971 23.4991 31.5101C23.962 31.5184 24.4237 31.5577 24.8813 31.6279V33.9433H24.8819C24.8819 33.9433 24.2361 34.0825 23.5062 34.1264C22.4696 34.1888 22.0111 33.8281 22.0143 33.829L22.0114 33.8274ZM24.0394 30.2429C23.8327 30.2277 23.5647 30.2203 23.245 30.2203C22.809 30.2203 22.386 30.2745 21.992 30.3811C21.5948 30.4883 21.2364 30.6543 20.9296 30.8752C20.6219 31.0946 20.3689 31.3819 20.1901 31.7148C20.0095 32.0506 19.9175 32.4446 19.9175 32.8903C19.9175 33.3424 19.996 33.7331 20.151 34.0528C20.3029 34.3699 20.5315 34.6441 20.8162 34.8504C21.0994 35.0565 21.4492 35.2089 21.8528 35.2993C22.2533 35.3907 22.7054 35.4369 23.2027 35.4369C23.7258 35.4369 24.2457 35.393 24.7495 35.308C25.1786 35.234 25.606 35.1509 26.0315 35.0587C26.2014 35.0197 26.39 34.9683 26.39 34.9683C26.5159 34.9363 26.5063 34.8017 26.5063 34.8017L26.5033 30.1515C26.5033 29.131 26.2308 28.3722 25.6928 27.9039C25.1567 27.4357 24.372 27.1999 23.3548 27.1999C22.9737 27.1999 22.3569 27.2516 21.9888 27.3255C21.9888 27.3255 20.8779 27.5413 20.4193 27.9004C20.4193 27.9004 20.3186 27.9624 20.3735 28.1028L20.7352 29.0716C20.7801 29.1972 20.9024 29.1543 20.9024 29.1543C20.9024 29.1543 20.9409 29.1391 20.9861 29.1123C21.9646 28.5795 23.2046 28.5956 23.2046 28.5956C23.7536 28.5956 24.1799 28.707 24.464 28.925C24.7421 29.1385 24.8839 29.4611 24.8839 30.1392V30.3546C24.4479 30.2913 24.0442 30.2548 24.0442 30.2548L24.0394 30.2429ZM65.0515 27.6175C65.0588 27.6004 65.0627 27.5821 65.0628 27.5636C65.0629 27.545 65.0593 27.5266 65.0521 27.5095C65.045 27.4924 65.0345 27.4769 65.0212 27.4639C65.0079 27.451 64.9922 27.4408 64.9749 27.434C64.8881 27.4011 64.455 27.3097 64.1224 27.289C63.483 27.249 63.1278 27.3569 62.8081 27.5002C62.4923 27.6427 62.1428 27.8716 61.9491 28.1364L61.9484 27.5164C61.9484 27.4311 61.8881 27.3624 61.8022 27.3624H60.4975C60.4129 27.3624 60.3516 27.4311 60.3516 27.5164V35.1052C60.3516 35.1462 60.368 35.1855 60.397 35.2145C60.4259 35.2435 60.4652 35.2598 60.5062 35.2599H61.8432C61.8841 35.2598 61.9234 35.2435 61.9523 35.2145C61.9813 35.1855 61.9975 35.1462 61.9975 35.1052V31.2947C61.9975 30.7844 62.0537 30.2774 62.1658 29.9577C62.2762 29.6416 62.4264 29.3894 62.6114 29.2085C62.7879 29.0339 63.0039 28.9043 63.2411 28.8307C63.4637 28.7668 63.6942 28.7344 63.9257 28.7345C64.1922 28.7345 64.4844 28.8029 64.4844 28.8029C64.5826 28.8139 64.6372 28.7539 64.6704 28.6654C64.7579 28.4325 65.0063 27.7353 65.0547 27.5965L65.0515 27.6175Z" fill="#00A1E0"/>
</svg>
