<svg width="86" height="64" viewBox="0 0 86 64" fill="none" xmlns="http://www.w3.org/2000/svg">
<path fill-rule="evenodd" clip-rule="evenodd" d="M35.7786 8.57926C38.5508 5.69341 42.4091 3.90633 46.6716 3.90633C52.3549 3.90633 57.2804 7.06372 59.9326 11.7682C62.2869 10.7158 64.8369 10.1724 67.4156 10.1737C77.6456 10.1737 85.9495 18.5408 85.9495 28.8655C85.9495 39.1901 77.6456 47.5572 67.4156 47.5572C66.1653 47.5572 64.9466 47.4315 63.7531 47.1941C61.4324 51.3302 56.9963 54.1403 51.9444 54.1403C49.8877 54.1444 47.8572 53.6778 46.0086 52.7763C43.6563 58.3017 38.1782 62.1853 31.8003 62.1853C25.1382 62.1853 19.4865 57.986 17.3079 52.0817C16.3383 52.2863 15.3499 52.3892 14.3589 52.3886C6.4339 52.3886 0.0244141 45.8844 0.0244141 37.8962C0.0244141 32.5287 2.91026 27.8557 7.19168 25.3298C6.28337 23.2374 5.81584 20.9803 5.81821 18.6993C5.81821 9.47975 13.3012 2.02832 22.5208 2.02832C27.9199 2.02832 32.7507 4.60159 35.7818 8.59568" fill="#00A1E0"/>
<path fill-rule="evenodd" clip-rule="evenodd" d="M12.54 33.2071C12.486 33.348 12.5593 33.3773 12.5767 33.4023C12.738 33.5191 12.9019 33.6037 13.0661 33.6987C13.9438 34.1629 14.771 34.2986 15.6362 34.2986C17.398 34.2986 18.4936 33.3609 18.4936 31.8517V31.822C18.4936 30.4264 17.2559 29.9181 16.1003 29.555L15.9491 29.5061C15.0745 29.2225 14.3199 28.9756 14.3199 28.401V28.3716C14.3199 27.8791 14.7619 27.516 15.4439 27.516C16.2017 27.516 17.1047 27.7682 17.6825 28.0874C17.6825 28.0874 17.8536 28.198 17.9158 28.0328C17.9496 27.9435 18.2442 27.1551 18.2757 27.0667C18.3092 26.9741 18.2505 26.9044 18.1902 26.8684C17.5271 26.4642 16.6115 26.1895 15.6643 26.1895L15.4884 26.1902C13.875 26.1902 12.7478 27.1658 12.7478 28.5614V28.5914C12.7478 30.0627 13.9918 30.5426 15.1537 30.8741L15.3406 30.9322C16.1868 31.1924 16.9193 31.4185 16.9193 32.0121V32.0417C16.9193 32.588 16.4426 32.9953 15.6785 32.9953C15.3814 32.9953 14.4345 32.9902 13.4083 32.3417C13.2842 32.2694 13.2135 32.2173 13.1178 32.1589C13.0673 32.1283 12.941 32.073 12.8861 32.2385L12.5388 33.2046M38.3346 33.2046C38.2806 33.3454 38.3539 33.3748 38.3719 33.3997C38.5326 33.5166 38.6971 33.6012 38.8613 33.6962C39.739 34.1604 40.5662 34.2961 41.4314 34.2961C43.1932 34.2961 44.2888 33.3584 44.2888 31.8491V31.8195C44.2888 30.4239 43.0543 29.9156 41.8955 29.5525L41.7443 29.5035C40.8697 29.22 40.1151 28.9731 40.1151 28.3984V28.3691C40.1151 27.8765 40.5571 27.5134 41.2391 27.5134C41.9969 27.5134 42.8967 27.7657 43.4777 28.0849C43.4777 28.0849 43.6488 28.1954 43.7113 28.0303C43.7448 27.9409 44.0397 27.1525 44.0681 27.0641C44.1019 26.9716 44.0428 26.9018 43.9828 26.8658C43.3198 26.4617 42.4042 26.187 41.4569 26.187L41.2808 26.1876C39.6673 26.1876 38.5402 27.1633 38.5402 28.5588V28.5888C38.5402 30.0602 39.7842 30.5401 40.9461 30.8716L41.1327 30.9297C41.982 31.1899 42.7114 31.416 42.7114 32.0095V32.0392C42.7114 32.5854 42.2346 32.9928 41.4705 32.9928C41.1728 32.9928 40.2234 32.9877 39.2004 32.3392C39.0763 32.2669 39.0037 32.217 38.9096 32.1564C38.8777 32.1362 38.729 32.0781 38.6781 32.2359L38.3308 33.2021M55.949 30.2468C55.949 31.0993 55.7899 31.7718 55.4786 32.2486C55.1679 32.719 54.6987 32.9495 54.0451 32.9495C53.3915 32.9495 52.9242 32.7209 52.618 32.2517C52.3095 31.7781 52.1538 31.1024 52.1538 30.2499C52.1538 29.3974 52.3105 28.7281 52.618 28.2576C52.9236 27.7903 53.3884 27.5662 54.0451 27.5662C54.7019 27.5662 55.1691 27.7925 55.4786 28.2576C55.7918 28.7281 55.949 29.3974 55.949 30.2499M57.4204 28.6681C57.2754 28.1787 57.0509 27.7493 56.751 27.3893C56.4507 27.0294 56.0722 26.7389 55.6207 26.5305C55.1723 26.3206 54.6419 26.2148 54.042 26.2148C53.4421 26.2148 52.9148 26.3212 52.4633 26.5305C52.0149 26.7402 51.6329 27.0294 51.3329 27.3893C51.0336 27.7493 50.8088 28.1787 50.6636 28.6681C50.5199 29.1543 50.447 29.6848 50.447 30.2499C50.447 30.8151 50.5199 31.3455 50.6636 31.8318C50.8079 32.3212 51.033 32.7506 51.3329 33.1105C51.6332 33.4705 52.0149 33.7578 52.4633 33.963C52.9148 34.1676 53.4452 34.2718 54.042 34.2718C54.6387 34.2718 55.1691 34.1676 55.6175 33.963C56.0658 33.7584 56.4479 33.4705 56.7478 33.1105C57.0475 32.7506 57.272 32.3212 57.4172 31.8318C57.5606 31.3455 57.6335 30.8151 57.6335 30.2499C57.6335 29.6879 57.5606 29.1543 57.4172 28.6681M69.51 32.7095C69.4617 32.5665 69.3221 32.6205 69.3221 32.6205C69.1084 32.7023 68.8801 32.7781 68.637 32.8159C68.392 32.8545 68.1192 32.8737 67.8318 32.8737C67.1214 32.8737 66.5531 32.6619 66.149 32.2422C65.7417 31.8223 65.5143 31.1466 65.5175 30.231C65.5197 29.3974 65.7211 28.7723 66.0827 28.2924C66.4394 27.8187 66.9888 27.5725 67.715 27.5725C68.3212 27.5725 68.7854 27.6429 69.2716 27.7951C69.2716 27.7951 69.3869 27.8453 69.4421 27.6934C69.5712 27.3366 69.6666 27.0809 69.8052 26.6894C69.8444 26.5773 69.7484 26.5299 69.7133 26.5163C69.5226 26.4418 69.0724 26.3196 68.7314 26.2682C68.4125 26.2195 68.0431 26.1943 67.6263 26.1943C67.0074 26.1943 66.4581 26.3 65.9876 26.5097C65.5172 26.719 65.1193 27.0086 64.8036 27.3685C64.4879 27.7284 64.2479 28.1579 64.0869 28.6472C63.9274 29.1335 63.8469 29.6671 63.8469 30.2323C63.8469 31.451 64.1753 32.4393 64.8257 33.1623C65.4761 33.8885 66.4549 34.2548 67.7305 34.2548C68.4851 34.2548 69.2587 34.1023 69.8144 33.8822C69.8144 33.8822 69.9205 33.831 69.8744 33.7073L69.5113 32.7095M72.0845 29.4259C72.1549 28.9522 72.2847 28.5576 72.4887 28.2513C72.794 27.784 73.2591 27.5283 73.9126 27.5283C74.5662 27.5283 74.9988 27.7853 75.3082 28.2513C75.5134 28.5592 75.6031 28.968 75.6366 29.4259L72.0687 29.4252L72.0845 29.4259ZM77.0416 28.3839C76.9163 27.9135 76.6059 27.4367 76.4038 27.2188C76.0818 26.8747 75.7692 26.6316 75.4566 26.499C75.0053 26.3071 74.5199 26.2086 74.0295 26.2094C73.4075 26.2094 72.8423 26.3146 72.3845 26.5283C71.9267 26.7437 71.5415 27.0367 71.2383 27.4029C70.9355 27.7692 70.7079 28.2017 70.5627 28.6974C70.4174 29.1868 70.3442 29.7236 70.3442 30.2856C70.3442 30.8603 70.4203 31.3939 70.5699 31.8769C70.7212 32.3632 70.9646 32.7894 71.293 33.143C71.6213 33.4998 72.0413 33.7777 72.5464 33.9734C73.0485 34.1676 73.6578 34.2683 74.3556 34.2661C75.7954 34.2614 76.5532 33.9409 76.8626 33.7673C76.9178 33.7363 76.9699 33.683 76.9049 33.5292L76.5797 32.6167C76.5298 32.4806 76.3921 32.5299 76.3921 32.5299C76.0354 32.6631 75.5302 32.9025 74.3462 32.8993C73.5726 32.898 73.0011 32.6698 72.6412 32.312C72.2749 31.9458 72.0918 31.4122 72.0634 30.6544L77.052 30.6582C77.052 30.6582 77.1834 30.6569 77.197 30.5287C77.2023 30.4757 77.3678 29.5057 77.0482 28.3849L77.0416 28.3839ZM32.2068 29.4259C32.2772 28.9522 32.4072 28.5576 32.6109 28.2513C32.9165 27.784 33.3813 27.5283 34.0349 27.5283C34.6885 27.5283 35.121 27.7853 35.4304 28.2513C35.6354 28.5592 35.725 28.968 35.7588 29.4259L32.191 29.4252L32.2068 29.4259ZM37.1638 28.3839C37.0388 27.9135 36.7281 27.4367 36.5261 27.2188C36.204 26.8747 35.8914 26.6316 35.5788 26.499C35.1276 26.3071 34.6421 26.2086 34.1517 26.2094C33.5297 26.2094 32.9645 26.3146 32.5067 26.5283C32.0489 26.7437 31.6637 27.0367 31.3606 27.4029C31.0584 27.7692 30.8301 28.2017 30.6849 28.6974C30.54 29.1868 30.467 29.7236 30.467 30.2856C30.467 30.8603 30.5425 31.3939 30.6931 31.8769C30.844 32.3632 31.0878 32.7894 31.413 33.143C31.7414 33.4998 32.1613 33.7777 32.6665 33.9734C33.1685 34.1676 33.7747 34.2683 34.4756 34.2661C35.9154 34.2614 36.6732 33.9409 36.9826 33.7673C37.0376 33.7363 37.09 33.683 37.0246 33.5292L36.6994 32.6167C36.6492 32.4806 36.5115 32.5299 36.5115 32.5299C36.1547 32.6631 35.6496 32.9025 34.4655 32.8993C33.6951 32.898 33.1205 32.6698 32.7606 32.312C32.3943 31.9458 32.2112 31.4122 32.1828 30.6544L37.1714 30.6582C37.1714 30.6582 37.3028 30.6569 37.3163 30.5287C37.3217 30.4757 37.4872 29.5057 37.1673 28.3849L37.1638 28.3839ZM21.4401 32.678C21.2446 32.522 21.2175 32.4838 21.1527 32.3824C21.0539 32.2299 21.0034 32.013 21.0034 31.7352C21.0034 31.2994 21.1486 30.9837 21.4486 30.7722C21.4454 30.7728 21.878 30.3996 22.8947 30.4122C23.3472 30.4203 23.7987 30.4588 24.246 30.5275V32.7913H24.2467C24.2467 32.7913 23.6152 32.9274 22.9016 32.9703C21.8881 33.0313 21.4398 32.6786 21.4429 32.6795L21.4401 32.678ZM23.4229 29.1733C23.2208 29.1584 22.9588 29.1512 22.6462 29.1512C22.2199 29.1512 21.8063 29.2042 21.4211 29.3084C21.0328 29.4132 20.6823 29.5755 20.3823 29.7915C20.0816 30.0061 19.8342 30.2869 19.6593 30.6124C19.4828 30.9408 19.3928 31.326 19.3928 31.7617C19.3928 32.2037 19.4695 32.5858 19.6211 32.8983C19.7696 33.2084 19.9932 33.4765 20.2715 33.6782C20.5484 33.8797 20.8904 34.0287 21.285 34.1171C21.6766 34.2065 22.1186 34.2516 22.6048 34.2516C23.1163 34.2516 23.6247 34.2087 24.1172 34.1256C24.5367 34.0533 24.9546 33.972 25.3707 33.8819C25.5368 33.8437 25.7212 33.7935 25.7212 33.7935C25.8443 33.7622 25.8348 33.6305 25.8348 33.6305L25.832 29.0839C25.832 28.0862 25.5655 27.3442 25.0395 26.8864C24.5154 26.4286 23.7481 26.1981 22.7535 26.1981C22.381 26.1981 21.7779 26.2486 21.418 26.3209C21.418 26.3209 20.3318 26.5318 19.8835 26.8829C19.8835 26.8829 19.785 26.9435 19.8386 27.0809L20.1923 28.0281C20.2362 28.1509 20.3558 28.1089 20.3558 28.1089C20.3558 28.1089 20.3934 28.0941 20.4376 28.0679C21.3943 27.5469 22.6067 27.5627 22.6067 27.5627C23.1435 27.5627 23.5603 27.6716 23.8381 27.8847C24.11 28.0934 24.2486 28.4089 24.2486 29.0719V29.2825C23.8223 29.2206 23.4276 29.1849 23.4276 29.1849L23.4229 29.1733ZM63.5217 26.6063C63.5289 26.5897 63.5326 26.5717 63.5327 26.5536C63.5328 26.5355 63.5293 26.5175 63.5223 26.5008C63.5153 26.484 63.5051 26.4689 63.4921 26.4562C63.4791 26.4435 63.4637 26.4336 63.4469 26.427C63.3619 26.3948 62.9385 26.3054 62.6133 26.2852C61.9882 26.2461 61.6408 26.3515 61.3283 26.4917C61.0195 26.6309 60.6778 26.8548 60.4884 27.1137L60.4878 26.5075C60.4878 26.4241 60.4287 26.3569 60.3447 26.3569H59.0692C58.9864 26.3569 58.9264 26.4241 58.9264 26.5075V33.9273C58.9265 33.9674 58.9425 34.0058 58.9708 34.0342C58.9992 34.0625 59.0376 34.0785 59.0777 34.0786H60.3848C60.4249 34.0785 60.4633 34.0625 60.4916 34.0342C60.5199 34.0058 60.5358 33.9674 60.5358 33.9273V30.2016C60.5358 29.7028 60.5907 29.207 60.7003 28.8945C60.8082 28.5854 60.9551 28.3388 61.136 28.162C61.3086 27.9912 61.5198 27.8645 61.7517 27.7925C61.9693 27.7301 62.1946 27.6984 62.421 27.6985C62.6815 27.6985 62.9673 27.7654 62.9673 27.7654C63.0632 27.7761 63.1166 27.7174 63.1491 27.6309C63.2347 27.4032 63.4775 26.7216 63.5249 26.5858" fill="#FFFFFE"/>
<path fill-rule="evenodd" clip-rule="evenodd" d="M51.3139 23.1817C51.1523 23.1328 50.9879 23.0938 50.8216 23.0648C50.598 23.0275 50.3715 23.01 50.1447 23.0124C49.2439 23.0124 48.5338 23.2669 48.0353 23.7696C47.5402 24.2684 47.2033 25.0284 47.0344 26.0284L46.9734 26.3659H45.8428C45.8428 26.3659 45.7048 26.3602 45.6757 26.5108L45.4901 27.5464C45.4771 27.6456 45.5198 27.7075 45.6524 27.7068H46.753L45.6363 33.9405C45.5488 34.4425 45.4487 34.8555 45.3379 35.1684C45.2287 35.4772 45.1219 35.7086 44.9906 35.8766C44.8633 36.0392 44.7427 36.1588 44.5347 36.2286C44.3629 36.2864 44.1652 36.3129 43.9487 36.3129C43.828 36.3129 43.6676 36.2927 43.5492 36.269C43.4308 36.2457 43.3693 36.2191 43.2805 36.1819C43.2805 36.1819 43.1514 36.1326 43.1006 36.2621C43.0592 36.3679 42.7659 37.1746 42.7312 37.2743C42.6958 37.3729 42.7454 37.4505 42.8079 37.4729C42.9544 37.5254 43.0633 37.5588 43.2629 37.6059C43.5401 37.6712 43.7737 37.6753 43.9925 37.6753C44.451 37.6753 44.8687 37.6109 45.2151 37.4859C45.5637 37.3599 45.8671 37.1405 46.1355 36.8434C46.4256 36.5229 46.6081 36.1873 46.7827 35.7294C46.9554 35.2757 47.1026 34.7124 47.2203 34.056L48.3425 27.7068H49.983C49.983 27.7068 50.1213 27.7119 50.1501 27.5619L50.3357 26.5263C50.3487 26.4271 50.3064 26.3653 50.1731 26.3659H48.5809C48.5887 26.3299 48.6611 25.7698 48.8439 25.2425C48.9219 25.0174 49.0687 24.8358 49.1931 24.7111C49.3092 24.5923 49.4523 24.5033 49.6102 24.4516C49.7832 24.3981 49.9636 24.3721 50.1447 24.3745C50.2947 24.3745 50.4418 24.3925 50.5539 24.4159C50.7083 24.4487 50.7683 24.4661 50.8087 24.4781C50.971 24.5277 50.9928 24.4797 51.0247 24.4011L51.4054 23.3553C51.4446 23.2429 51.3492 23.1956 51.3139 23.1817ZM29.0625 33.9537C29.0625 34.0371 29.0032 34.105 28.9198 34.105H27.5991C27.5154 34.105 27.4561 34.0371 27.4561 33.9537V23.3234C27.4561 23.2404 27.5154 23.1731 27.5991 23.1731H28.9198C29.0032 23.1731 29.0625 23.2404 29.0625 23.3234V33.9537Z" fill="#FFFFFE"/>
</svg>
